<?xml version="1.0" encoding="UTF-8"?><svg id="_レイヤー_2" xmlns="http://www.w3.org/2000/svg" viewBox="0 0 301 200"><defs><style>.cls-1{fill:#e6e6e5;}.cls-2{fill:#fff;stroke:#999;stroke-miterlimit:10;}.cls-3{font-family:Arial-BoldMT, Arial;font-size:28.87px;letter-spacing:.03em;}.cls-3,.cls-4,.cls-5,.cls-6,.cls-7{fill:#666;}.cls-3,.cls-4,.cls-7{font-weight:700;}.cls-8{fill:#999899;font-family:SegoePrint, 'Segoe Print';font-size:17.25px;}.cls-4{font-family:KozGoPr6N-Bold-90ms-RKSJ-H, 'Kozuka Gothic Pr6N';font-size:24.99px;}.cls-6{font-family:FranklinGothic-MediumItalic, 'Franklin Gothic Medium';font-size:64.96px;font-style:italic;font-weight:500;}.cls-9{letter-spacing:0em;}.cls-7{font-family:DazzleUnicase-Bold, 'Dazzle Unicase';font-size:57.74px;}</style></defs><g id="_レイヤー_1-2"><rect class="cls-1" x=".5" width="300" height="200"/><rect class="cls-2" x=".5" y="87" width="300" height="60"/><path class="cls-5" d="M80.69,162.56h.91v6.08h3.58l-.13.78h-4.36v-6.86Z"/><path class="cls-5" d="M90.39,166.91c0,1.44-.83,2.63-2.35,2.63-1.43,0-2.3-1.11-2.3-2.61s.85-2.62,2.35-2.62c1.39,0,2.3,1.04,2.3,2.61ZM86.63,166.92c0,1.1.55,1.9,1.45,1.9s1.43-.76,1.43-1.89-.51-1.9-1.45-1.9-1.43.76-1.43,1.9Z"/><path class="cls-5" d="M91.52,165.78c0-.7,0-1.09,0-1.36h.85c.01.14.03.53.03,1.02.26-.68.86-1.11,1.68-1.14v.86c-1.03.03-1.68.57-1.68,1.83v2.43h-.86v-3.64Z"/><path class="cls-5" d="M95.43,167.08c0,1.02.52,1.74,1.37,1.74.79,0,1.05-.41,1.21-.77h.87c-.2.64-.73,1.49-2.1,1.49-1.57,0-2.21-1.28-2.21-2.56,0-1.49.75-2.67,2.27-2.67,1.61,0,2.14,1.29,2.14,2.36,0,.15,0,.28-.01.41h-3.52ZM98.09,166.47c0-.82-.42-1.48-1.28-1.48s-1.27.61-1.35,1.48h2.63Z"/><path class="cls-5" d="M100.07,165.71c0-.43,0-.88,0-1.29h.83c.01.15.04.52.03.77.23-.45.66-.89,1.45-.89.71,0,1.19.36,1.38.89.27-.47.74-.89,1.59-.89s1.58.48,1.58,1.83v3.28h-.85v-3.18c0-.58-.21-1.19-.99-1.19s-1.17.62-1.17,1.5v2.87h-.85v-3.15c0-.64-.18-1.21-.97-1.21s-1.19.65-1.19,1.6v2.77h-.86v-3.71Z"/><path class="cls-5" d="M110.9,162.18h.86v1.08h-.86v-1.08ZM110.9,164.42h.86v5h-.86v-5Z"/><path class="cls-5" d="M114.1,168.8v2.58h-.86v-5.74c0-.41,0-.83,0-1.22h.84c.02.17.03.47.03.79.27-.5.78-.9,1.63-.9,1.16,0,2,.97,2,2.49,0,1.79-.96,2.75-2.17,2.75-.81,0-1.23-.34-1.46-.74ZM116.84,166.83c0-1.06-.48-1.78-1.34-1.78-1.04,0-1.45.65-1.45,1.87s.34,1.9,1.38,1.9c.91,0,1.4-.75,1.4-1.98Z"/><path class="cls-5" d="M119.35,167.99c.14.55.55.87,1.23.87.73,0,1.02-.32,1.02-.77s-.23-.68-1.18-.92c-1.43-.35-1.73-.78-1.73-1.46s.52-1.4,1.8-1.4,1.82.75,1.88,1.44h-.83c-.07-.32-.32-.77-1.08-.77-.7,0-.91.34-.91.66,0,.37.21.56,1.12.78,1.52.36,1.82.87,1.82,1.61,0,.88-.7,1.52-1.94,1.52s-1.93-.65-2.06-1.55h.86Z"/><path class="cls-5" d="M127.51,167.96c0,.49,0,1.16,0,1.46h-.84c-.02-.13-.03-.44-.03-.75-.25.55-.73.87-1.51.87-.84,0-1.65-.42-1.65-1.83v-3.29h.86v3.1c0,.66.21,1.26,1.04,1.26.92,0,1.27-.51,1.27-1.76v-2.61h.86v3.54Z"/><path class="cls-5" d="M128.98,165.71c0-.43,0-.88,0-1.29h.83c.01.15.04.52.03.77.23-.45.66-.89,1.45-.89.71,0,1.19.36,1.38.89.27-.47.74-.89,1.59-.89s1.58.48,1.58,1.83v3.28h-.85v-3.18c0-.58-.21-1.19-.99-1.19s-1.17.62-1.17,1.5v2.87h-.85v-3.15c0-.64-.18-1.21-.97-1.21s-1.19.65-1.19,1.6v2.77h-.86v-3.71Z"/><path class="cls-5" d="M140.23,167.99c.14.55.55.87,1.23.87.73,0,1.02-.32,1.02-.77s-.23-.68-1.18-.92c-1.43-.35-1.73-.78-1.73-1.46s.52-1.4,1.8-1.4,1.82.75,1.88,1.44h-.83c-.07-.32-.32-.77-1.08-.77-.7,0-.91.34-.91.66,0,.37.21.56,1.12.78,1.52.36,1.82.87,1.82,1.61,0,.88-.7,1.52-1.94,1.52s-1.93-.65-2.06-1.55h.86Z"/><path class="cls-5" d="M144.47,162.18h.86v1.08h-.86v-1.08ZM144.47,164.42h.86v5h-.86v-5Z"/><path class="cls-5" d="M146.22,164.42h.86v-1.47h.86v1.47h1.1v.71h-1.1v2.93c0,.49.12.73.57.73.12,0,.3,0,.44-.04v.65c-.21.08-.51.09-.75.09-.78,0-1.12-.4-1.12-1.23v-3.13h-.86v-.71Z"/><path class="cls-5" d="M156.22,168.33c0,.45.04.95.07,1.09h-.83c-.04-.11-.07-.35-.08-.65-.17.33-.57.77-1.54.77-1.18,0-1.68-.77-1.68-1.53,0-1.12.88-1.63,2.36-1.63h.85v-.43c0-.44-.14-.98-1.08-.98-.83,0-.98.42-1.07.8h-.83c.07-.69.49-1.48,1.93-1.48,1.22,0,1.9.5,1.9,1.64v2.39ZM155.38,166.98h-.81c-1,0-1.53.28-1.53.98,0,.52.36.9.97.9,1.2,0,1.37-.81,1.37-1.72v-.16Z"/><path class="cls-5" d="M157.71,165.71c0-.43,0-.88,0-1.29h.83c.01.15.04.52.03.77.23-.45.66-.89,1.45-.89.71,0,1.19.36,1.38.89.27-.47.74-.89,1.59-.89s1.58.48,1.58,1.83v3.28h-.85v-3.18c0-.58-.21-1.19-.99-1.19s-1.17.62-1.17,1.5v2.87h-.85v-3.15c0-.64-.18-1.21-.97-1.21s-1.19.65-1.19,1.6v2.77h-.86v-3.71Z"/><path class="cls-5" d="M166.56,167.08c0,1.02.52,1.74,1.37,1.74.79,0,1.05-.41,1.21-.77h.87c-.2.64-.73,1.49-2.1,1.49-1.57,0-2.21-1.28-2.21-2.56,0-1.49.75-2.67,2.27-2.67,1.61,0,2.14,1.29,2.14,2.36,0,.15,0,.28-.01.41h-3.52ZM169.22,166.47c-.01-.82-.42-1.48-1.28-1.48s-1.27.61-1.35,1.48h2.63Z"/><path class="cls-5" d="M170.61,164.42h.86v-1.47h.86v1.47h1.1v.71h-1.1v2.93c0,.49.12.73.57.73.12,0,.3,0,.44-.04v.65c-.21.08-.51.09-.75.09-.78,0-1.12-.4-1.12-1.23v-3.13h-.86v-.71Z"/><path class="cls-5" d="M182.48,167.47c-.3,1.16-1.17,2.03-2.73,2.03-2.05,0-3.08-1.56-3.08-3.5s1.04-3.55,3.12-3.55c1.62,0,2.5.92,2.7,2.07h-.91c-.25-.75-.74-1.31-1.82-1.31-1.51,0-2.13,1.38-2.13,2.76s.59,2.76,2.17,2.76c1.06,0,1.52-.61,1.78-1.27h.91Z"/><path class="cls-5" d="M187.96,166.91c0,1.44-.83,2.63-2.35,2.63-1.43,0-2.3-1.11-2.3-2.61s.85-2.62,2.35-2.62c1.39,0,2.3,1.04,2.3,2.61ZM184.2,166.92c0,1.1.55,1.9,1.45,1.9s1.43-.76,1.43-1.89-.51-1.9-1.45-1.9-1.43.76-1.43,1.9Z"/><path class="cls-5" d="M189.09,165.68c0-.43,0-.87-.01-1.26h.84c.02.15.04.67.03.82.2-.43.61-.94,1.57-.94s1.67.57,1.67,1.9v3.21h-.86v-3.1c0-.75-.29-1.26-1.06-1.26-.94,0-1.32.72-1.32,1.72v2.65h-.86v-3.74Z"/><path class="cls-5" d="M195.03,167.99c.14.55.55.87,1.23.87.73,0,1.02-.32,1.02-.77s-.23-.68-1.18-.92c-1.43-.35-1.73-.78-1.73-1.46s.52-1.4,1.8-1.4,1.82.75,1.88,1.44h-.83c-.07-.32-.32-.77-1.08-.77-.7,0-.91.34-.91.66,0,.37.21.56,1.12.78,1.52.36,1.82.87,1.82,1.61,0,.88-.7,1.52-1.94,1.52s-1.93-.65-2.06-1.55h.86Z"/><path class="cls-5" d="M199.8,167.08c0,1.02.52,1.74,1.37,1.74.79,0,1.05-.41,1.21-.77h.87c-.2.64-.73,1.49-2.1,1.49-1.57,0-2.21-1.28-2.21-2.56,0-1.49.75-2.67,2.27-2.67,1.61,0,2.14,1.29,2.14,2.36,0,.15,0,.28-.01.41h-3.52ZM202.46,166.47c0-.82-.42-1.48-1.28-1.48s-1.27.61-1.35,1.48h2.63Z"/><path class="cls-5" d="M208.44,167.89c-.21.86-.79,1.65-2.07,1.65-1.38,0-2.23-.99-2.23-2.59,0-1.41.8-2.64,2.29-2.64s1.94,1.03,2,1.67h-.86c-.12-.51-.44-.95-1.17-.95-.88,0-1.38.76-1.38,1.89s.49,1.9,1.35,1.9c.62,0,.99-.33,1.19-.93h.86Z"/><path class="cls-5" d="M208.94,164.42h.86v-1.47h.86v1.47h1.1v.71h-1.1v2.93c0,.49.12.73.57.73.12,0,.3,0,.44-.04v.65c-.21.08-.51.09-.75.09-.78,0-1.12-.4-1.12-1.23v-3.13h-.86v-.71Z"/><path class="cls-5" d="M213.17,167.08c0,1.02.52,1.74,1.37,1.74.79,0,1.05-.41,1.21-.77h.87c-.2.64-.73,1.49-2.1,1.49-1.57,0-2.21-1.28-2.21-2.56,0-1.49.75-2.67,2.27-2.67,1.61,0,2.14,1.29,2.14,2.36,0,.15,0,.28-.01.41h-3.52ZM215.83,166.47c-.01-.82-.42-1.48-1.28-1.48s-1.27.61-1.35,1.48h2.63Z"/><path class="cls-5" d="M217.21,164.42h.86v-1.47h.86v1.47h1.1v.71h-1.1v2.93c0,.49.12.73.57.73.12,0,.3,0,.44-.04v.65c-.21.08-.51.09-.75.09-.78,0-1.12-.4-1.12-1.23v-3.13h-.86v-.71Z"/><path class="cls-5" d="M224.88,167.96c0,.49,0,1.16,0,1.46h-.84c-.02-.13-.03-.44-.03-.75-.25.55-.73.87-1.51.87-.84,0-1.65-.42-1.65-1.83v-3.29h.86v3.1c0,.66.21,1.26,1.04,1.26.92,0,1.27-.51,1.27-1.76v-2.61h.86v3.54Z"/><path class="cls-5" d="M226.36,165.78c0-.7,0-1.09,0-1.36h.85c.01.14.03.53.03,1.02.26-.68.86-1.11,1.68-1.14v.86c-1.03.03-1.68.57-1.68,1.83v2.43h-.86v-3.64Z"/><path class="cls-5" d="M76.31,180.15c0,.45.04.95.07,1.09h-.83c-.04-.11-.07-.35-.08-.65-.17.33-.57.77-1.54.77-1.18,0-1.68-.77-1.68-1.53,0-1.12.88-1.62,2.36-1.62h.85v-.43c0-.44-.14-.98-1.08-.98-.83,0-.98.41-1.07.8h-.83c.07-.69.49-1.49,1.93-1.48,1.22,0,1.9.5,1.9,1.64v2.39ZM75.46,178.81h-.81c-1,0-1.53.28-1.53.98,0,.52.36.9.97.9,1.2,0,1.37-.81,1.37-1.72v-.16Z"/><path class="cls-5" d="M81.94,174.01v5.82c0,.47,0,.93,0,1.41h-.83c-.02-.13-.04-.52-.04-.71-.25.52-.75.83-1.57.83-1.29,0-2.08-1.04-2.08-2.56s.85-2.67,2.23-2.67c.88,0,1.28.36,1.41.64v-2.76h.86ZM78.33,178.77c0,1.21.57,1.86,1.36,1.86,1.17,0,1.43-.86,1.43-1.96s-.23-1.81-1.36-1.81c-.88,0-1.43.7-1.43,1.91Z"/><path class="cls-5" d="M83.41,174.01h.86v1.08h-.86v-1.08ZM83.41,176.25h.86v5h-.86v-5Z"/><path class="cls-5" d="M86.61,180.63v2.58h-.86v-5.74c0-.41,0-.83,0-1.22h.84c.02.17.03.47.03.79.27-.5.78-.9,1.63-.9,1.16,0,2,.97,2,2.49,0,1.78-.96,2.75-2.17,2.75-.81,0-1.23-.34-1.46-.74ZM89.35,178.65c0-1.06-.48-1.79-1.34-1.79-1.04,0-1.44.66-1.44,1.87s.34,1.9,1.38,1.9c.91,0,1.4-.75,1.4-1.98Z"/><path class="cls-5" d="M91.39,174.01h.86v1.08h-.86v-1.08ZM91.39,176.25h.86v5h-.86v-5Z"/><path class="cls-5" d="M97.89,174.01v5.82c0,.47,0,.93,0,1.41h-.83c-.02-.13-.04-.52-.04-.71-.25.52-.75.83-1.57.83-1.29,0-2.08-1.04-2.08-2.56s.85-2.67,2.23-2.67c.88,0,1.28.36,1.41.64v-2.76h.86ZM94.27,178.77c0,1.21.57,1.86,1.36,1.86,1.17,0,1.43-.86,1.43-1.96s-.23-1.81-1.36-1.81c-.88,0-1.43.7-1.43,1.91Z"/><path class="cls-5" d="M103.3,179.71c-.21.86-.79,1.65-2.07,1.65-1.38,0-2.23-.99-2.23-2.59,0-1.41.8-2.64,2.29-2.64s1.94,1.03,2,1.67h-.86c-.12-.51-.44-.95-1.17-.95-.88,0-1.38.76-1.38,1.89s.49,1.9,1.35,1.9c.62,0,.99-.33,1.19-.93h.86Z"/><path class="cls-5" d="M104.42,174.01h.86v1.08h-.86v-1.08ZM104.42,176.25h.86v5h-.86v-5Z"/><path class="cls-5" d="M106.76,177.5c0-.43,0-.87-.01-1.26h.84c.02.15.04.67.03.82.2-.43.61-.94,1.57-.94s1.67.57,1.67,1.9v3.21h-.86v-3.11c0-.75-.29-1.26-1.06-1.26-.94,0-1.32.72-1.32,1.72v2.65h-.86v-3.74Z"/><path class="cls-5" d="M116.45,180.79c0,1.6-.66,2.51-2.29,2.51-1.52,0-1.98-.85-2.07-1.53h.88c.15.55.59.84,1.23.84,1.13,0,1.42-.72,1.42-1.87v-.4c-.27.56-.72.88-1.56.88-1.23,0-2.07-1-2.07-2.47,0-1.63.95-2.62,2.16-2.62.95,0,1.36.45,1.47.78,0-.23.03-.56.04-.66h.82c0,.29-.02.96-.02,1.44v3.1ZM112.88,178.71c0,1.05.55,1.77,1.36,1.77,1.08,0,1.39-.72,1.39-1.83s-.3-1.79-1.36-1.79c-.92,0-1.39.77-1.39,1.86Z"/><path class="cls-5" d="M118.45,178.9c0,1.02.52,1.74,1.37,1.74.79,0,1.05-.41,1.21-.77h.87c-.2.64-.73,1.49-2.1,1.49-1.57,0-2.21-1.28-2.21-2.56,0-1.49.75-2.67,2.27-2.67,1.61,0,2.14,1.29,2.14,2.36,0,.15,0,.28-.01.42h-3.52ZM121.11,178.29c-.01-.82-.42-1.48-1.28-1.48s-1.27.61-1.35,1.48h2.63Z"/><path class="cls-5" d="M123.11,181.24v-7.24h.86v7.24h-.86Z"/><path class="cls-5" d="M125.45,174.01h.86v1.08h-.86v-1.08ZM125.45,176.25h.86v5h-.86v-5Z"/><path class="cls-5" d="M128.16,179.81c.14.55.55.87,1.22.87.73,0,1.02-.32,1.02-.77s-.23-.68-1.18-.92c-1.43-.35-1.73-.78-1.73-1.46s.52-1.41,1.8-1.41,1.82.75,1.88,1.44h-.83c-.07-.32-.32-.77-1.08-.77-.7,0-.91.34-.91.66,0,.37.21.56,1.12.78,1.52.36,1.82.87,1.82,1.61,0,.88-.69,1.51-1.94,1.51s-1.93-.65-2.06-1.55h.86Z"/><path class="cls-5" d="M131.72,176.25h.86v-1.47h.86v1.47h1.1v.7h-1.1v2.93c0,.49.12.73.57.73.12,0,.3,0,.44-.04v.65c-.21.08-.51.09-.75.09-.78,0-1.12-.4-1.12-1.23v-3.13h-.86v-.7Z"/><path class="cls-5" d="M136.01,179.81c.14.55.55.87,1.22.87.73,0,1.02-.32,1.02-.77s-.23-.68-1.18-.92c-1.43-.35-1.73-.78-1.73-1.46s.52-1.41,1.8-1.41,1.82.75,1.88,1.44h-.83c-.07-.32-.32-.77-1.08-.77-.7,0-.91.34-.91.66,0,.37.21.56,1.12.78,1.52.36,1.82.87,1.82,1.61,0,.88-.69,1.51-1.94,1.51s-1.93-.65-2.06-1.55h.86Z"/><path class="cls-5" d="M140.78,178.9c0,1.02.52,1.74,1.37,1.74.79,0,1.05-.41,1.21-.77h.87c-.2.64-.73,1.49-2.1,1.49-1.57,0-2.21-1.28-2.21-2.56,0-1.49.75-2.67,2.27-2.67,1.61,0,2.14,1.29,2.14,2.36,0,.15,0,.28-.01.42h-3.52ZM143.44,178.29c-.01-.82-.42-1.48-1.28-1.48s-1.27.61-1.35,1.48h2.63Z"/><path class="cls-5" d="M149.63,174.01v5.82c0,.47,0,.93,0,1.41h-.83c-.02-.13-.04-.52-.04-.71-.25.52-.75.83-1.57.83-1.29,0-2.07-1.04-2.07-2.56s.85-2.67,2.23-2.67c.88,0,1.28.36,1.41.64v-2.76h.86ZM146.02,178.77c0,1.21.57,1.86,1.36,1.86,1.17,0,1.43-.86,1.43-1.96s-.23-1.81-1.36-1.81c-.88,0-1.43.7-1.43,1.91Z"/><path class="cls-5" d="M157.75,174.01v5.82c0,.47,0,.93,0,1.41h-.83c-.02-.13-.04-.52-.04-.71-.25.52-.75.83-1.57.83-1.29,0-2.08-1.04-2.08-2.56s.85-2.67,2.23-2.67c.88,0,1.28.36,1.41.64v-2.76h.86ZM154.14,178.77c0,1.21.57,1.86,1.36,1.86,1.17,0,1.43-.86,1.43-1.96s-.23-1.81-1.36-1.81c-.88,0-1.43.7-1.43,1.91Z"/><path class="cls-5" d="M163.52,178.73c0,1.44-.83,2.63-2.35,2.63-1.43,0-2.3-1.11-2.3-2.61s.85-2.62,2.35-2.62c1.39,0,2.3,1.04,2.3,2.61ZM159.75,178.74c0,1.1.55,1.9,1.45,1.9s1.43-.76,1.43-1.89-.51-1.9-1.45-1.9-1.43.75-1.43,1.9Z"/><path class="cls-5" d="M167.65,178.9c0,1.02.52,1.74,1.37,1.74.79,0,1.05-.41,1.21-.77h.87c-.2.64-.73,1.49-2.1,1.49-1.57,0-2.21-1.28-2.21-2.56,0-1.49.75-2.67,2.27-2.67,1.61,0,2.14,1.29,2.14,2.36,0,.15,0,.28-.01.42h-3.52ZM170.31,178.29c0-.82-.42-1.48-1.28-1.48s-1.27.61-1.35,1.48h2.63Z"/><path class="cls-5" d="M172.33,174.01h.86v1.08h-.86v-1.08ZM172.33,176.25h.86v5h-.86v-5Z"/><path class="cls-5" d="M178.67,179.79c0,.49,0,1.16,0,1.46h-.84c-.02-.13-.03-.44-.03-.75-.25.55-.73.87-1.51.87-.84,0-1.65-.42-1.65-1.83v-3.29h.86v3.1c0,.66.21,1.26,1.04,1.26.92,0,1.27-.51,1.27-1.76v-2.61h.86v3.54Z"/><path class="cls-5" d="M180.5,179.81c.14.55.55.87,1.23.87.73,0,1.02-.32,1.02-.77s-.23-.68-1.18-.92c-1.43-.35-1.73-.78-1.73-1.46s.52-1.41,1.8-1.41,1.82.75,1.88,1.44h-.83c-.07-.32-.32-.77-1.08-.77-.7,0-.91.34-.91.66,0,.37.21.56,1.12.78,1.52.36,1.82.87,1.82,1.61,0,.88-.7,1.51-1.94,1.51s-1.93-.65-2.06-1.55h.86Z"/><path class="cls-5" d="M184.69,177.53c0-.43,0-.88,0-1.29h.83c.01.15.04.52.03.77.23-.45.66-.89,1.45-.89.71,0,1.19.36,1.38.9.27-.47.74-.9,1.59-.9s1.58.48,1.58,1.83v3.29h-.85v-3.18c0-.58-.21-1.19-.99-1.19s-1.17.62-1.17,1.5v2.87h-.85v-3.15c0-.64-.18-1.22-.97-1.22s-1.19.65-1.19,1.6v2.77h-.86v-3.71Z"/><path class="cls-5" d="M197.32,178.73c0,1.44-.83,2.63-2.35,2.63-1.43,0-2.3-1.11-2.3-2.61s.85-2.62,2.35-2.62c1.39,0,2.3,1.04,2.3,2.61ZM193.56,178.74c0,1.1.55,1.9,1.45,1.9s1.43-.76,1.43-1.89-.51-1.9-1.45-1.9-1.43.75-1.43,1.9Z"/><path class="cls-5" d="M202.67,174.01v5.82c0,.47,0,.93,0,1.41h-.83c-.02-.13-.04-.52-.04-.71-.25.52-.75.83-1.57.83-1.29,0-2.07-1.04-2.07-2.56s.85-2.67,2.23-2.67c.88,0,1.28.36,1.41.64v-2.76h.86ZM199.05,178.77c0,1.21.57,1.86,1.36,1.86,1.17,0,1.43-.86,1.43-1.96s-.23-1.81-1.36-1.81c-.88,0-1.43.7-1.43,1.91Z"/><path class="cls-5" d="M205.99,176.25h.86v-1.47h.86v1.47h1.1v.7h-1.1v2.93c0,.49.12.73.57.73.12,0,.3,0,.44-.04v.65c-.21.08-.51.09-.75.09-.78,0-1.12-.4-1.12-1.23v-3.13h-.86v-.7Z"/><path class="cls-5" d="M210.22,178.9c0,1.02.52,1.74,1.37,1.74.79,0,1.05-.41,1.21-.77h.87c-.2.64-.73,1.49-2.1,1.49-1.57,0-2.21-1.28-2.21-2.56,0-1.49.75-2.67,2.27-2.67,1.61,0,2.14,1.29,2.14,2.36,0,.15,0,.28-.01.42h-3.52ZM212.88,178.29c-.01-.82-.42-1.48-1.28-1.48s-1.27.61-1.35,1.48h2.63Z"/><path class="cls-5" d="M214.86,177.53c0-.43,0-.88,0-1.29h.83c.01.15.04.52.03.77.23-.45.66-.89,1.45-.89.71,0,1.19.36,1.38.9.27-.47.74-.9,1.59-.9s1.58.48,1.58,1.83v3.29h-.85v-3.18c0-.58-.21-1.19-.99-1.19s-1.17.62-1.17,1.5v2.87h-.85v-3.15c0-.64-.18-1.22-.97-1.22s-1.19.65-1.19,1.6v2.77h-.86v-3.71Z"/><path class="cls-5" d="M224.06,180.63v2.58h-.86v-5.74c0-.41,0-.83,0-1.22h.84c.02.17.03.47.03.79.27-.5.78-.9,1.63-.9,1.16,0,2,.97,2,2.49,0,1.78-.96,2.75-2.17,2.75-.81,0-1.23-.34-1.46-.74ZM226.8,178.65c0-1.06-.48-1.79-1.34-1.79-1.04,0-1.44.66-1.44,1.87s.34,1.9,1.38,1.9c.91,0,1.4-.75,1.4-1.98Z"/><path class="cls-5" d="M233.17,178.73c0,1.44-.83,2.63-2.35,2.63-1.43,0-2.3-1.11-2.3-2.61s.85-2.62,2.35-2.62c1.39,0,2.3,1.04,2.3,2.61ZM229.41,178.74c0,1.1.55,1.9,1.45,1.9s1.43-.76,1.43-1.89-.51-1.9-1.45-1.9-1.43.75-1.43,1.9Z"/><path class="cls-5" d="M234.3,177.6c0-.7,0-1.09,0-1.36h.85c.01.14.03.53.03,1.02.26-.68.86-1.11,1.68-1.14v.86c-1.03.03-1.68.57-1.68,1.83v2.43h-.86v-3.64Z"/><text class="cls-7" transform="translate(47.33 71.19)"><tspan x="0" y="0">50</tspan></text><text class="cls-3" transform="translate(137.14 64.13) rotate(2) scale(.89 .96)"><tspan x="0" y="0">%</tspan></text><text class="cls-6" transform="translate(160.8 69.08) scale(1.05 1)"><tspan x="0" y="0">OFF</tspan></text><text class="cls-8" transform="translate(14.53 32.11) rotate(-14.07)"><tspan class="cls-9" x="0" y="0">S</tspan><tspan x="10.85" y="0">ale!</tspan></text><text class="cls-4" transform="translate(35.22 126.86)"><tspan x="0" y="0">BANA TEXT SAMPLE</tspan></text></g></svg>