<?xml version="1.0" encoding="UTF-8"?><svg id="_レイヤー_2" xmlns="http://www.w3.org/2000/svg" xmlns:xlink="http://www.w3.org/1999/xlink" viewBox="0 0 600 800"><defs><style>.cls-1{fill:#4f4f4f;}.cls-2{fill:none;}.cls-3{fill:#eaeaea;}.cls-4{clip-path:url(#clippath);}</style><clipPath id="clippath"><rect class="cls-2" x="-100" y="100" width="800" height="600" transform="translate(700 100) rotate(90)"/></clipPath></defs><g id="mesh"><g class="cls-4"><path class="cls-3" d="M581.41,702.27v-47.63c1.96-.22,3.49-1.87,3.49-3.89,0-2.17-1.76-3.93-3.93-3.93-1.29,0-2.43.63-3.15,1.6l-41.23-23.81c.21-.48.33-1.01.33-1.57,0-2.17-1.76-3.93-3.93-3.93s-3.93,1.76-3.93,3.93c0,.56.12,1.09.33,1.57l-41.23,23.8c-.72-.97-1.85-1.6-3.15-1.6-2.17,0-3.93,1.76-3.93,3.93,0,2.02,1.53,3.66,3.48,3.89v47.64c-1.96.22-3.48,1.87-3.48,3.89,0,2.17,1.76,3.93,3.93,3.93,1.29,0,2.43-.63,3.15-1.6l41.23,23.8c-.21.48-.33,1.01-.33,1.57,0,2.17,1.76,3.93,3.93,3.93s3.93-1.76,3.93-3.93c0-.56-.12-1.09-.33-1.57l41.23-23.81c.72.97,1.85,1.6,3.15,1.6,2.17,0,3.93-1.76,3.93-3.93,0-2.02-1.53-3.66-3.49-3.89ZM536.13,731.53c-.72-.97-1.85-1.6-3.15-1.6s-2.43.63-3.15,1.6l-41.23-23.81c.21-.48.33-1.01.33-1.57,0-2.02-1.53-3.66-3.49-3.89v-47.63c1.96-.22,3.49-1.87,3.49-3.89,0-.56-.12-1.09-.33-1.57l41.23-23.81c.72.97,1.85,1.6,3.15,1.6s2.43-.63,3.15-1.6l41.23,23.81c-.21.48-.33,1.01-.33,1.56,0,2.02,1.53,3.66,3.48,3.89v47.64c-1.96.22-3.48,1.87-3.48,3.89,0,.56.12,1.09.33,1.57l-41.23,23.81Z"/><path class="cls-3" d="M660.03,604.3v-47.63c1.96-.22,3.49-1.87,3.49-3.89,0-2.17-1.76-3.93-3.93-3.93-1.29,0-2.43.63-3.15,1.6l-41.23-23.81c.21-.48.33-1.01.33-1.57,0-2.17-1.76-3.93-3.93-3.93s-3.93,1.76-3.93,3.93c0,.56.12,1.09.33,1.57l-41.23,23.8c-.72-.97-1.85-1.6-3.15-1.6-2.17,0-3.93,1.76-3.93,3.93,0,2.02,1.53,3.66,3.48,3.89v47.64c-1.96.22-3.48,1.87-3.48,3.89,0,2.17,1.76,3.93,3.93,3.93,1.29,0,2.43-.63,3.15-1.6l41.23,23.81c-.21.48-.33,1.01-.33,1.57,0,2.17,1.76,3.93,3.93,3.93s3.93-1.76,3.93-3.93c0-.56-.12-1.09-.33-1.57l41.23-23.81c.72.97,1.85,1.6,3.15,1.6,2.17,0,3.93-1.76,3.93-3.93,0-2.02-1.53-3.66-3.49-3.89ZM614.75,633.56c-.72-.97-1.85-1.6-3.15-1.6s-2.43.63-3.15,1.6l-41.23-23.81c.21-.48.33-1.01.33-1.57,0-2.02-1.53-3.66-3.49-3.89v-47.63c1.96-.22,3.49-1.87,3.49-3.89,0-.56-.12-1.09-.33-1.57l41.23-23.8c.72.97,1.85,1.6,3.15,1.6s2.43-.63,3.15-1.6l41.23,23.81c-.21.48-.33,1.01-.33,1.56,0,2.02,1.53,3.66,3.48,3.89v47.64c-1.96.22-3.48,1.87-3.48,3.89,0,.56.12,1.09.33,1.57l-41.23,23.81Z"/><path class="cls-3" d="M563.07,529.02v-47.63c1.96-.22,3.49-1.87,3.49-3.89,0-2.17-1.76-3.93-3.93-3.93-1.29,0-2.43.63-3.15,1.6l-41.23-23.81c.21-.48.33-1.01.33-1.57,0-2.17-1.76-3.93-3.93-3.93s-3.93,1.76-3.93,3.93c0,.56.12,1.09.33,1.57l-41.23,23.8c-.72-.97-1.85-1.6-3.15-1.6-2.17,0-3.93,1.76-3.93,3.93,0,2.02,1.53,3.66,3.48,3.89v47.64c-1.96.22-3.48,1.87-3.48,3.89,0,2.17,1.76,3.93,3.93,3.93,1.29,0,2.43-.63,3.15-1.6l41.23,23.8c-.21.48-.33,1.01-.33,1.57,0,2.17,1.76,3.93,3.93,3.93s3.93-1.76,3.93-3.93c0-.56-.12-1.09-.33-1.57l41.23-23.81c.72.97,1.85,1.6,3.15,1.6,2.17,0,3.93-1.76,3.93-3.93,0-2.02-1.53-3.66-3.49-3.89ZM517.79,558.27c-.72-.97-1.85-1.6-3.15-1.6s-2.43.63-3.15,1.6l-41.23-23.81c.21-.48.33-1.01.33-1.57,0-2.02-1.53-3.66-3.49-3.89v-47.63c1.96-.22,3.49-1.87,3.49-3.89,0-.56-.12-1.09-.33-1.57l41.23-23.81c.72.97,1.85,1.6,3.15,1.6s2.43-.63,3.15-1.6l41.23,23.81c-.21.48-.33,1.01-.33,1.56,0,2.02,1.53,3.66,3.48,3.89v47.64c-1.96.22-3.48,1.87-3.48,3.89,0,.56.12,1.09.33,1.57l-41.23,23.81Z"/><path class="cls-3" d="M692.5,716.71v-47.63c1.96-.22,3.49-1.87,3.49-3.89,0-2.17-1.76-3.93-3.93-3.93-1.29,0-2.43.63-3.15,1.6l-41.23-23.81c.21-.48.33-1.01.33-1.57,0-2.17-1.76-3.93-3.93-3.93s-3.93,1.76-3.93,3.93c0,.56.12,1.09.33,1.57l-41.23,23.8c-.72-.97-1.85-1.6-3.15-1.6-2.17,0-3.93,1.76-3.93,3.93,0,2.02,1.53,3.66,3.48,3.89v47.64c-1.96.22-3.48,1.87-3.48,3.89,0,2.17,1.76,3.93,3.93,3.93,1.29,0,2.43-.63,3.15-1.6l41.23,23.81c-.21.48-.33,1.01-.33,1.56,0,2.17,1.76,3.93,3.93,3.93s3.93-1.76,3.93-3.93c0-.56-.12-1.09-.33-1.57l41.23-23.81c.72.97,1.85,1.6,3.15,1.6,2.17,0,3.93-1.76,3.93-3.93,0-2.02-1.53-3.66-3.49-3.89ZM647.22,745.97c-.72-.97-1.85-1.6-3.15-1.6s-2.43.63-3.15,1.6l-41.23-23.81c.21-.48.33-1.01.33-1.57,0-2.02-1.53-3.66-3.49-3.89v-47.63c1.96-.22,3.49-1.87,3.49-3.89,0-.56-.12-1.09-.33-1.57l41.23-23.8c.72.97,1.85,1.6,3.15,1.6s2.43-.63,3.15-1.6l41.23,23.81c-.21.48-.33,1.01-.33,1.56,0,2.02,1.53,3.66,3.48,3.89v47.64c-1.96.22-3.48,1.87-3.48,3.89,0,.56.12,1.09.33,1.57l-41.23,23.81Z"/><path class="cls-3" d="M567.95,386.58v-47.63c1.96-.22,3.49-1.87,3.49-3.89,0-2.17-1.76-3.93-3.93-3.93-1.29,0-2.43.63-3.15,1.6l-41.23-23.81c.21-.48.33-1.01.33-1.57,0-2.17-1.76-3.93-3.93-3.93s-3.93,1.76-3.93,3.93c0,.56.12,1.09.33,1.57l-41.23,23.8c-.72-.97-1.85-1.6-3.15-1.6-2.17,0-3.93,1.76-3.93,3.93,0,2.02,1.53,3.66,3.48,3.89v47.64c-1.96.22-3.48,1.87-3.48,3.89,0,2.17,1.76,3.93,3.93,3.93,1.29,0,2.43-.63,3.15-1.6l41.23,23.8c-.21.48-.33,1.01-.33,1.57,0,2.17,1.76,3.93,3.93,3.93s3.93-1.76,3.93-3.93c0-.56-.12-1.09-.33-1.57l41.23-23.81c.72.97,1.85,1.6,3.15,1.6,2.17,0,3.93-1.76,3.93-3.93,0-2.02-1.53-3.66-3.49-3.89ZM522.67,415.84c-.72-.97-1.85-1.6-3.15-1.6s-2.43.63-3.15,1.6l-41.23-23.81c.21-.48.33-1.01.33-1.57,0-2.02-1.53-3.66-3.49-3.89v-47.63c1.96-.22,3.49-1.87,3.49-3.89,0-.56-.12-1.09-.33-1.57l41.23-23.8c.72.97,1.85,1.6,3.15,1.6s2.43-.63,3.15-1.6l41.23,23.81c-.21.48-.33,1.01-.33,1.56,0,2.02,1.53,3.66,3.48,3.89v47.64c-1.96.22-3.48,1.87-3.48,3.89,0,.56.12,1.09.33,1.57l-41.23,23.81Z"/><path class="cls-3" d="M640.58,439.65v-47.63c1.96-.22,3.49-1.87,3.49-3.89,0-2.17-1.76-3.93-3.93-3.93-1.29,0-2.43.63-3.15,1.6l-41.23-23.81c.21-.48.33-1.01.33-1.57,0-2.17-1.76-3.93-3.93-3.93s-3.93,1.76-3.93,3.93c0,.56.12,1.09.33,1.57l-41.23,23.8c-.72-.96-1.85-1.6-3.15-1.6-2.17,0-3.93,1.76-3.93,3.93,0,2.02,1.53,3.66,3.48,3.89v47.64c-1.96.22-3.48,1.87-3.48,3.89,0,2.17,1.76,3.93,3.93,3.93,1.29,0,2.43-.63,3.15-1.6l41.23,23.8c-.21.48-.33,1.01-.33,1.57,0,2.17,1.76,3.93,3.93,3.93s3.93-1.76,3.93-3.93c0-.56-.12-1.09-.33-1.57l41.23-23.81c.72.97,1.85,1.6,3.15,1.6,2.17,0,3.93-1.76,3.93-3.93,0-2.02-1.53-3.66-3.49-3.89ZM595.3,468.91c-.72-.97-1.85-1.6-3.15-1.6s-2.43.63-3.15,1.6l-41.23-23.81c.21-.48.33-1.01.33-1.57,0-2.02-1.53-3.66-3.49-3.89v-47.63c1.96-.22,3.49-1.87,3.49-3.89,0-.56-.12-1.09-.33-1.57l41.23-23.8c.72.97,1.85,1.6,3.15,1.6s2.43-.63,3.15-1.6l41.23,23.81c-.21.48-.33,1.01-.33,1.56,0,2.02,1.53,3.66,3.48,3.89v47.64c-1.96.22-3.48,1.87-3.48,3.89,0,.56.12,1.09.33,1.57l-41.23,23.81Z"/><path class="cls-3" d="M664.4,238.87v-47.63c1.96-.22,3.49-1.87,3.49-3.89,0-2.17-1.76-3.93-3.93-3.93-1.29,0-2.43.63-3.15,1.6l-41.23-23.81c.21-.48.33-1.01.33-1.57,0-2.17-1.76-3.93-3.93-3.93s-3.93,1.76-3.93,3.93c0,.56.12,1.09.33,1.57l-41.23,23.8c-.72-.97-1.85-1.6-3.15-1.6-2.17,0-3.93,1.76-3.93,3.93,0,2.02,1.53,3.66,3.48,3.89v47.63c-1.96.22-3.48,1.87-3.48,3.89,0,2.17,1.76,3.93,3.93,3.93,1.29,0,2.43-.63,3.15-1.6l41.23,23.81c-.21.48-.33,1.01-.33,1.56,0,2.17,1.76,3.93,3.93,3.93s3.93-1.76,3.93-3.93c0-.56-.12-1.09-.33-1.57l41.23-23.81c.72.97,1.85,1.6,3.15,1.6,2.17,0,3.93-1.76,3.93-3.93,0-2.02-1.53-3.66-3.49-3.89ZM619.12,268.13c-.72-.97-1.85-1.6-3.15-1.6s-2.43.63-3.15,1.6l-41.23-23.81c.21-.48.33-1.01.33-1.57,0-2.02-1.53-3.66-3.49-3.89v-47.63c1.96-.22,3.49-1.87,3.49-3.89,0-.56-.12-1.09-.33-1.57l41.23-23.8c.72.97,1.85,1.6,3.15,1.6s2.43-.63,3.15-1.6l41.23,23.81c-.21.48-.33,1.01-.33,1.56,0,2.02,1.53,3.66,3.48,3.89v47.63c-1.96.22-3.48,1.87-3.48,3.89,0,.56.12,1.09.33,1.57l-41.23,23.81Z"/><path class="cls-3" d="M574.46,319.03v-47.63c1.96-.22,3.49-1.87,3.49-3.89,0-2.17-1.76-3.93-3.93-3.93-1.29,0-2.43.63-3.15,1.6l-41.23-23.81c.21-.48.33-1.01.33-1.57,0-2.17-1.76-3.93-3.93-3.93s-3.93,1.76-3.93,3.93c0,.56.12,1.09.33,1.57l-41.23,23.8c-.72-.97-1.85-1.6-3.15-1.6-2.17,0-3.93,1.76-3.93,3.93,0,2.02,1.53,3.66,3.48,3.89v47.64c-1.96.22-3.48,1.87-3.48,3.89,0,2.17,1.76,3.93,3.93,3.93,1.29,0,2.43-.63,3.15-1.6l41.23,23.8c-.21.48-.33,1.01-.33,1.57,0,2.17,1.76,3.93,3.93,3.93s3.93-1.76,3.93-3.93c0-.56-.12-1.09-.33-1.57l41.23-23.81c.72.97,1.85,1.6,3.15,1.6,2.17,0,3.93-1.76,3.93-3.93,0-2.02-1.53-3.66-3.49-3.89ZM529.18,348.29c-.72-.97-1.85-1.6-3.15-1.6s-2.43.63-3.15,1.6l-41.23-23.81c.21-.48.33-1.01.33-1.57,0-2.02-1.53-3.66-3.49-3.89v-47.63c1.96-.22,3.49-1.87,3.49-3.89,0-.56-.12-1.09-.33-1.57l41.23-23.8c.72.97,1.85,1.6,3.15,1.6s2.43-.63,3.15-1.6l41.23,23.81c-.21.48-.33,1.01-.33,1.56,0,2.02,1.53,3.66,3.48,3.89v47.64c-1.96.22-3.48,1.87-3.48,3.89,0,.56.12,1.09.33,1.57l-41.23,23.81Z"/><path class="cls-3" d="M468.5,216.62v-47.63c1.96-.22,3.49-1.87,3.49-3.89,0-2.17-1.76-3.93-3.93-3.93-1.29,0-2.43.63-3.15,1.6l-41.23-23.81c.21-.48.33-1.01.33-1.57,0-2.17-1.76-3.93-3.93-3.93s-3.93,1.76-3.93,3.93c0,.56.12,1.09.33,1.57l-41.23,23.8c-.72-.97-1.85-1.6-3.15-1.6-2.17,0-3.93,1.76-3.93,3.93,0,2.02,1.53,3.66,3.48,3.89v47.64c-1.96.22-3.48,1.87-3.48,3.89,0,2.17,1.76,3.93,3.93,3.93,1.29,0,2.43-.63,3.15-1.6l41.23,23.8c-.21.48-.33,1.01-.33,1.57,0,2.17,1.76,3.93,3.93,3.93s3.93-1.76,3.93-3.93c0-.56-.12-1.09-.33-1.57l41.23-23.81c.72.97,1.85,1.6,3.15,1.6,2.17,0,3.93-1.76,3.93-3.93,0-2.02-1.53-3.66-3.49-3.89ZM423.22,245.88c-.72-.97-1.85-1.6-3.15-1.6s-2.43.63-3.15,1.6l-41.23-23.81c.21-.48.33-1.01.33-1.57,0-2.02-1.53-3.66-3.49-3.89v-47.63c1.96-.22,3.49-1.87,3.49-3.89,0-.56-.12-1.09-.33-1.57l41.23-23.8c.72.97,1.85,1.6,3.15,1.6s2.43-.63,3.15-1.6l41.23,23.81c-.21.48-.33,1.01-.33,1.56,0,2.02,1.53,3.66,3.48,3.89v47.64c-1.96.22-3.48,1.87-3.48,3.89,0,.56.12,1.09.33,1.57l-41.23,23.81Z"/><path class="cls-3" d="M553.73,147.49v-47.63c1.96-.22,3.49-1.87,3.49-3.89,0-2.17-1.76-3.93-3.93-3.93-1.29,0-2.43.63-3.15,1.6l-41.23-23.81c.21-.48.33-1.01.33-1.57,0-2.17-1.76-3.93-3.93-3.93s-3.93,1.76-3.93,3.93c0,.56.12,1.09.33,1.57l-41.23,23.8c-.72-.97-1.85-1.6-3.15-1.6-2.17,0-3.93,1.76-3.93,3.93,0,2.02,1.53,3.66,3.48,3.89v47.63c-1.96.22-3.48,1.87-3.48,3.89,0,2.17,1.76,3.93,3.93,3.93,1.29,0,2.43-.63,3.15-1.6l41.23,23.8c-.21.48-.33,1.01-.33,1.57,0,2.17,1.76,3.93,3.93,3.93s3.93-1.76,3.93-3.93c0-.56-.12-1.09-.33-1.57l41.23-23.81c.72.97,1.85,1.6,3.15,1.6,2.17,0,3.93-1.76,3.93-3.93,0-2.02-1.53-3.66-3.49-3.89ZM508.45,176.75c-.72-.97-1.85-1.6-3.15-1.6s-2.43.63-3.15,1.6l-41.23-23.81c.21-.48.33-1.01.33-1.57,0-2.02-1.53-3.66-3.49-3.89v-47.63c1.96-.22,3.49-1.87,3.49-3.89,0-.56-.12-1.09-.33-1.57l41.23-23.8c.72.97,1.85,1.6,3.15,1.6s2.43-.63,3.15-1.6l41.23,23.81c-.21.48-.33,1.01-.33,1.56,0,2.02,1.53,3.66,3.48,3.89v47.63c-1.96.22-3.48,1.87-3.48,3.89,0,.56.12,1.09.33,1.57l-41.23,23.81Z"/><path class="cls-3" d="M601.27,49.71V2.08c1.96-.22,3.49-1.87,3.49-3.89,0-2.17-1.76-3.93-3.93-3.93-1.29,0-2.43.63-3.15,1.6l-41.23-23.81c.21-.48.33-1.01.33-1.57,0-2.17-1.76-3.93-3.93-3.93s-3.93,1.76-3.93,3.93c0,.56.12,1.09.33,1.57l-41.23,23.8c-.72-.97-1.85-1.6-3.15-1.6-2.17,0-3.93,1.76-3.93,3.93,0,2.02,1.53,3.66,3.48,3.89v47.63c-1.96.22-3.48,1.87-3.48,3.89,0,2.17,1.76,3.93,3.93,3.93,1.29,0,2.43-.63,3.15-1.6l41.23,23.8c-.21.48-.33,1.01-.33,1.57,0,2.17,1.76,3.93,3.93,3.93s3.93-1.76,3.93-3.93c0-.56-.12-1.09-.33-1.57l41.23-23.81c.72.97,1.85,1.6,3.15,1.6,2.17,0,3.93-1.76,3.93-3.93,0-2.02-1.53-3.66-3.49-3.89ZM555.99,78.97c-.72-.97-1.85-1.6-3.15-1.6s-2.43.63-3.15,1.6l-41.23-23.81c.21-.48.33-1.01.33-1.57,0-2.02-1.53-3.66-3.49-3.89V2.08c1.96-.22,3.49-1.87,3.49-3.89,0-.56-.12-1.09-.33-1.57l41.23-23.8c.72.97,1.85,1.6,3.15,1.6s2.43-.63,3.15-1.6l41.23,23.81c-.21.48-.33,1.01-.33,1.56,0,2.02,1.53,3.66,3.48,3.89v47.63c-1.96.22-3.48,1.87-3.48,3.89,0,.56.12,1.09.33,1.57l-41.23,23.81Z"/><path class="cls-3" d="M398.54,129.09v-47.63c1.96-.22,3.49-1.87,3.49-3.89,0-2.17-1.76-3.93-3.93-3.93-1.29,0-2.43.63-3.15,1.6l-41.23-23.81c.21-.48.33-1.01.33-1.57,0-2.17-1.76-3.93-3.93-3.93s-3.93,1.76-3.93,3.93c0,.56.12,1.09.33,1.57l-41.23,23.8c-.72-.97-1.85-1.6-3.15-1.6-2.17,0-3.93,1.76-3.93,3.93,0,2.02,1.53,3.66,3.48,3.89v47.63c-1.96.22-3.48,1.87-3.48,3.89,0,2.17,1.76,3.93,3.93,3.93,1.29,0,2.43-.63,3.15-1.6l41.23,23.8c-.21.48-.33,1.01-.33,1.57,0,2.17,1.76,3.93,3.93,3.93s3.93-1.76,3.93-3.93c0-.56-.12-1.09-.33-1.57l41.23-23.81c.72.97,1.85,1.6,3.15,1.6,2.17,0,3.93-1.76,3.93-3.93,0-2.02-1.53-3.66-3.49-3.89ZM353.26,158.35c-.72-.97-1.85-1.6-3.15-1.6s-2.43.63-3.15,1.6l-41.23-23.81c.21-.48.33-1.01.33-1.57,0-2.02-1.53-3.66-3.49-3.89v-47.63c1.96-.22,3.49-1.87,3.49-3.89,0-.56-.12-1.09-.33-1.57l41.23-23.81c.72.97,1.85,1.6,3.15,1.6s2.43-.63,3.15-1.6l41.23,23.81c-.21.48-.33,1.01-.33,1.56,0,2.02,1.53,3.66,3.48,3.89v47.63c-1.96.22-3.48,1.87-3.48,3.89,0,.56.12,1.09.33,1.57l-41.23,23.81Z"/><path class="cls-3" d="M501.82,501.81v-47.63c1.96-.22,3.49-1.87,3.49-3.89,0-2.17-1.76-3.93-3.93-3.93-1.29,0-2.43.63-3.15,1.6l-41.23-23.81c.21-.48.33-1.01.33-1.57,0-2.17-1.76-3.93-3.93-3.93s-3.93,1.76-3.93,3.93c0,.56.12,1.09.33,1.57l-41.23,23.8c-.72-.97-1.85-1.6-3.15-1.6-2.17,0-3.93,1.76-3.93,3.93,0,2.02,1.53,3.66,3.48,3.89v47.64c-1.96.22-3.48,1.87-3.48,3.89,0,2.17,1.76,3.93,3.93,3.93,1.29,0,2.43-.63,3.15-1.6l41.23,23.81c-.21.48-.33,1.01-.33,1.57,0,2.17,1.76,3.93,3.93,3.93s3.93-1.76,3.93-3.93c0-.56-.12-1.09-.33-1.57l41.23-23.81c.72.97,1.85,1.6,3.15,1.6,2.17,0,3.93-1.76,3.93-3.93,0-2.02-1.53-3.66-3.49-3.89ZM456.54,531.07c-.72-.97-1.85-1.6-3.15-1.6s-2.43.63-3.15,1.6l-41.23-23.81c.21-.48.33-1.01.33-1.57,0-2.02-1.53-3.66-3.49-3.89v-47.63c1.96-.22,3.49-1.87,3.49-3.89,0-.56-.12-1.09-.33-1.57l41.23-23.8c.72.97,1.85,1.6,3.15,1.6s2.43-.63,3.15-1.6l41.23,23.81c-.21.48-.33,1.01-.33,1.56,0,2.02,1.53,3.66,3.48,3.89v47.64c-1.96.22-3.48,1.87-3.48,3.89,0,.56.12,1.09.33,1.57l-41.23,23.81Z"/><path class="cls-3" d="M677.83,152.26v-47.63c1.96-.22,3.49-1.87,3.49-3.89,0-2.17-1.76-3.93-3.93-3.93-1.29,0-2.43.63-3.15,1.6l-41.23-23.81c.21-.48.33-1.01.33-1.57,0-2.17-1.76-3.93-3.93-3.93s-3.93,1.76-3.93,3.93c0,.56.12,1.09.33,1.57l-41.23,23.8c-.72-.97-1.85-1.6-3.15-1.6-2.17,0-3.93,1.76-3.93,3.93,0,2.02,1.53,3.66,3.48,3.89v47.64c-1.96.22-3.48,1.87-3.48,3.89,0,2.17,1.76,3.93,3.93,3.93,1.29,0,2.43-.63,3.15-1.6l41.23,23.81c-.21.48-.33,1.01-.33,1.56,0,2.17,1.76,3.93,3.93,3.93s3.93-1.76,3.93-3.93c0-.56-.12-1.09-.33-1.57l41.23-23.81c.72.97,1.85,1.6,3.15,1.6,2.17,0,3.93-1.76,3.93-3.93,0-2.02-1.53-3.66-3.49-3.89ZM632.55,181.52c-.72-.97-1.85-1.6-3.15-1.6s-2.43.63-3.15,1.6l-41.23-23.81c.21-.48.33-1.01.33-1.57,0-2.02-1.53-3.66-3.49-3.89v-47.63c1.96-.22,3.49-1.87,3.49-3.89,0-.56-.12-1.09-.33-1.57l41.23-23.8c.72.97,1.85,1.6,3.15,1.6s2.43-.63,3.15-1.6l41.23,23.81c-.21.48-.33,1.01-.33,1.56,0,2.02,1.53,3.66,3.48,3.89v47.64c-1.96.22-3.48,1.87-3.48,3.89,0,.56.12,1.09.33,1.57l-41.23,23.81Z"/><path class="cls-3" d="M520.42,755.35v-47.63c1.96-.22,3.49-1.87,3.49-3.89,0-2.17-1.76-3.93-3.93-3.93-1.29,0-2.43.63-3.15,1.6l-41.23-23.81c.21-.48.33-1.01.33-1.57,0-2.17-1.76-3.93-3.93-3.93s-3.93,1.76-3.93,3.93c0,.56.12,1.09.33,1.57l-41.23,23.8c-.72-.97-1.85-1.6-3.15-1.6-2.17,0-3.93,1.76-3.93,3.93,0,2.02,1.53,3.66,3.48,3.89v47.64c-1.96.22-3.48,1.87-3.48,3.89,0,2.17,1.76,3.93,3.93,3.93,1.29,0,2.43-.63,3.15-1.6l41.23,23.8c-.21.48-.33,1.01-.33,1.57,0,2.17,1.76,3.93,3.93,3.93s3.93-1.76,3.93-3.93c0-.56-.12-1.09-.33-1.57l41.23-23.81c.72.97,1.85,1.6,3.15,1.6,2.17,0,3.93-1.76,3.93-3.93,0-2.02-1.53-3.66-3.49-3.89ZM475.14,784.6c-.72-.97-1.85-1.6-3.15-1.6s-2.43.63-3.15,1.6l-41.23-23.81c.21-.48.33-1.01.33-1.57,0-2.02-1.53-3.66-3.49-3.89v-47.63c1.96-.22,3.49-1.87,3.49-3.89,0-.56-.12-1.09-.33-1.57l41.23-23.81c.72.97,1.85,1.6,3.15,1.6s2.43-.63,3.15-1.6l41.23,23.81c-.21.48-.33,1.01-.33,1.56,0,2.02,1.53,3.66,3.48,3.89v47.64c-1.96.22-3.48,1.87-3.48,3.89,0,.56.12,1.09.33,1.57l-41.23,23.81Z"/><polygon class="cls-1" points="501.47 560.17 501.19 559.69 546.2 533.71 546.2 481.9 501.19 455.91 501.47 455.44 546.75 481.58 546.75 534.03 546.61 534.11 501.47 560.17"/><path class="cls-1" d="M501.33,556.23c2.04,0,3.7,1.66,3.7,3.7s-1.66,3.7-3.7,3.7-3.7-1.66-3.7-3.7,1.66-3.7,3.7-3.7Z"/><path class="cls-1" d="M501.33,451.98c2.04,0,3.7,1.66,3.7,3.7s-1.66,3.7-3.7,3.7-3.7-1.66-3.7-3.7,1.66-3.7,3.7-3.7Z"/><circle class="cls-1" cx="546.48" cy="533.87" r="3.7" transform="translate(-68.65 986.94) rotate(-80.7)"/><circle class="cls-1" cx="546.48" cy="481.74" r="3.7" transform="translate(-17.2 943.23) rotate(-80.7)"/><rect class="cls-1" x="597.2" y="208.79" width="1.34" height="126.97" transform="translate(63.14 653.91) rotate(-60)"/><path class="cls-1" d="M542.9,235.77c2.63,0,4.76,2.13,4.76,4.76s-2.13,4.76-4.76,4.76-4.76-2.13-4.76-4.76,2.13-4.76,4.76-4.76Z"/><polygon class="cls-1" points="499.26 211.18 446.91 181.39 446.53 121.34 447.16 121.34 447.54 181.02 499.26 210.45 550.6 180.37 550.22 120.69 550.86 120.69 551.23 180.74 551.08 180.83 499.26 211.18"/><path class="cls-1" d="M499.24,208.27c1.41,0,2.56,1.12,2.56,2.53,0,1.41-1.12,2.56-2.53,2.56-1.41,0-2.56-1.12-2.56-2.53,0-1.41,1.12-2.56,2.53-2.56Z"/><path class="cls-1" d="M447.21,178.66c1.41,0,2.56,1.12,2.56,2.53,0,1.41-1.12,2.56-2.53,2.56-1.41,0-2.56-1.12-2.56-2.53,0-1.41,1.12-2.56,2.53-2.56Z"/><path class="cls-1" d="M446.82,117.09c2.35-.01,4.26,1.87,4.27,4.22.01,2.35-1.87,4.26-4.22,4.27s-4.26-1.87-4.27-4.22c-.01-2.35,1.87-4.26,4.22-4.27Z"/><path class="cls-1" d="M550.89,176.31c2.35-.01,4.26,1.87,4.27,4.22.01,2.35-1.87,4.26-4.22,4.27-2.35.01-4.26-1.87-4.27-4.22-.01-2.35,1.87-4.26,4.22-4.27Z"/><path class="cls-1" d="M550.51,116.44c2.35-.01,4.26,1.88,4.27,4.22.01,2.35-1.87,4.26-4.22,4.27-2.35.01-4.26-1.87-4.27-4.22-.01-2.35,1.87-4.26,4.22-4.27Z"/><polygon class="cls-1" points="612.65 94.73 611.98 94.73 611.98 34.41 554.94 4.32 497.9 34.41 497.9 94.73 497.23 94.73 497.23 34.01 497.41 33.91 554.94 3.57 555.1 3.65 612.65 34.01 612.65 94.73"/><path class="cls-1" d="M554.94,8.24c-2.6,0-4.7-1.92-4.7-4.29s2.1-4.29,4.7-4.29,4.7,1.92,4.7,4.29-2.1,4.29-4.7,4.29Z"/><path class="cls-1" d="M497.56,38.5c-2.6,0-4.7-1.92-4.7-4.29s2.1-4.29,4.7-4.29,4.7,1.92,4.7,4.29-2.1,4.29-4.7,4.29Z"/><path class="cls-1" d="M497.56,99.03c-2.6,0-4.7-1.92-4.7-4.29s2.1-4.29,4.7-4.29,4.7,1.92,4.7,4.29-2.1,4.29-4.7,4.29Z"/><polygon class="cls-1" points="539.3 97.05 455.03 48.4 370.76 97.05 370.24 96.16 455.03 47.21 539.82 96.16 539.3 97.05"/><path class="cls-1" d="M370.5,89.68c3.82,0,6.93,3.1,6.93,6.93s-3.1,6.93-6.93,6.93-6.92-3.1-6.92-6.93,3.1-6.93,6.92-6.93Z"/><path class="cls-1" d="M539.56,92.45c2.29,0,4.15,1.86,4.15,4.15s-1.86,4.15-4.15,4.15-4.16-1.86-4.16-4.15,1.86-4.15,4.16-4.15Z"/><polygon class="cls-1" points="602.85 444.85 485.42 377.05 486.13 375.81 602.85 443.2 719.57 375.81 720.28 377.05 602.85 444.85"/><path class="cls-1" d="M602.85,453.62c-5.3,0-9.59-4.29-9.59-9.59s4.29-9.59,9.59-9.59,9.59,4.29,9.59,9.59-4.29,9.59-9.59,9.59Z"/><path class="cls-1" d="M485.77,382.19c-3.18,0-5.75-2.58-5.75-5.75s2.58-5.75,5.75-5.75,5.75,2.58,5.75,5.75-2.58,5.75-5.75,5.75Z"/><polygon class="cls-1" points="637.39 283.89 636.67 283.89 636.67 216.16 578.01 182.3 578.37 181.67 637.39 215.75 637.39 283.89"/><path class="cls-1" d="M578.19,177.16c2.66,0,4.82,2.16,4.82,4.82s-2.16,4.82-4.82,4.82-4.82-2.16-4.82-4.82,2.16-4.82,4.82-4.82Z"/><polygon class="cls-1" points="669.89 833.71 554.37 767.18 554.37 634.13 555.78 634.13 555.78 766.37 670.59 832.49 669.89 833.71"/><ellipse class="cls-1" cx="555.07" cy="634.13" rx="9.43" ry="9.41"/><ellipse class="cls-1" cx="555.07" cy="766.78" rx="9.43" ry="9.41"/><polygon class="cls-1" points="363.82 844.73 363.12 844.73 363.12 778.9 306.1 745.97 306.45 745.37 363.82 778.49 363.82 844.73"/><path class="cls-1" d="M306.28,742.86c1.55,0,2.81,1.26,2.81,2.81s-1.26,2.81-2.81,2.81-2.81-1.26-2.81-2.81,1.26-2.81,2.81-2.81Z"/><circle class="cls-1" cx="363.47" cy="778.69" r="4.69"/><polygon class="cls-1" points="584.11 399.44 512.56 358.13 512.56 275.51 583.89 234.33 584.33 235.08 513.43 276.01 513.43 357.63 584.11 398.44 655.01 357.5 655.44 358.26 584.11 399.44"/><path class="cls-1" d="M584.11,393.11c3.22,0,5.83,2.61,5.83,5.83s-2.61,5.83-5.83,5.83-5.83-2.61-5.83-5.83,2.61-5.83,5.83-5.83Z"/><path class="cls-1" d="M584.11,228.88c3.22,0,5.83,2.61,5.83,5.83s-2.61,5.83-5.83,5.83-5.83-2.61-5.83-5.83,2.61-5.83,5.83-5.83Z"/><polygon class="cls-1" points="312.25 92.16 311.72 91.23 398.57 41.09 398.57 -58.89 311.98 -108.88 225.13 -58.74 224.6 -59.66 311.98 -110.11 312.25 -109.96 399.63 -59.51 399.63 41.7 399.37 41.86 312.25 92.16"/><path class="cls-1" d="M311.98,95.98c-2.37,0-4.28-1.92-4.28-4.28s1.92-4.28,4.28-4.28,4.28,1.92,4.28,4.28-1.92,4.28-4.28,4.28Z"/><path class="cls-1" d="M399.1,48.54c-3.94,0-7.14-3.2-7.14-7.14s3.2-7.14,7.14-7.14,7.14,3.2,7.14,7.14-3.2,7.14-7.14,7.14Z"/><polygon class="cls-1" points="531.55 813.96 531.28 813.8 443.9 763.35 443.9 662.14 444.16 661.99 531.28 611.69 531.81 612.61 444.96 662.75 444.96 762.74 531.55 812.73 618.4 762.58 618.93 763.5 531.55 813.96"/><path class="cls-1" d="M531.55,605.01c3.94,0,7.14,3.2,7.14,7.14s-3.2,7.14-7.14,7.14-7.14-3.2-7.14-7.14,3.2-7.14,7.14-7.14Z"/><path class="cls-1" d="M444.43,758.76c2.37,0,4.28,1.92,4.28,4.28s-1.92,4.28-4.28,4.28-4.28-1.92-4.28-4.28,1.92-4.28,4.28-4.28Z"/><polygon class="cls-1" points="657.56 607.13 657.29 606.98 569.9 556.53 569.9 455.62 570.97 455.62 570.97 555.91 657.56 605.9 744.41 555.76 744.94 556.68 657.56 607.13"/><path class="cls-1" d="M570.44,552.13c2.26,0,4.09,1.83,4.09,4.09s-1.83,4.09-4.09,4.09-4.09-1.83-4.09-4.09,1.83-4.09,4.09-4.09Z"/><path class="cls-1" d="M570.44,448.48c3.94,0,7.14,3.2,7.14,7.14s-3.2,7.14-7.14,7.14-7.14-3.2-7.14-7.14,3.2-7.14,7.14-7.14Z"/><polygon class="cls-1" points="476.34 791.22 475.61 791.22 475.61 722.06 415.9 687.59 356.01 722.17 355.64 721.53 415.9 686.74 416.08 686.85 476.34 721.64 476.34 791.22"/><path class="cls-1" d="M415.9,692.09c-2.72,0-4.92-2.2-4.92-4.92s2.2-4.92,4.92-4.92,4.92,2.2,4.92,4.92-2.2,4.92-4.92,4.92Z"/><path class="cls-1" d="M475.97,796.14c-2.72,0-4.92-2.2-4.92-4.92s2.2-4.92,4.92-4.92,4.92,2.2,4.92,4.92-2.2,4.92-4.92,4.92Z"/><path class="cls-1" d="M355.82,724.8c-1.63,0-2.95-1.32-2.95-2.95s1.32-2.95,2.95-2.95,2.95,1.32,2.95,2.95-1.32,2.95-2.95,2.95Z"/><polygon class="cls-1" points="733.43 682.42 732.37 682.42 732.37 582.13 645.78 532.14 558.93 582.29 558.4 581.37 645.78 530.91 646.05 531.07 733.43 581.52 733.43 682.42"/><path class="cls-1" d="M558.66,586.11c-2.37,0-4.28-1.92-4.28-4.28s1.92-4.28,4.28-4.28,4.28,1.92,4.28,4.28-1.92,4.28-4.28,4.28Z"/></g></g></svg>