<?xml version="1.0" encoding="UTF-8"?><svg id="_レイヤー_2" xmlns="http://www.w3.org/2000/svg" viewBox="0 0 300 200"><defs><style>.cls-1{fill:#b3b3b3;}</style></defs><g id="_レイヤー_1-2"><path class="cls-1" d="M0,200h76.19c.6-5.28,1.2-10.56,1.87-15.83.65-5.14,1.43-10.27,2.15-15.41.69-4.91,1.27-9.82,2.06-14.71,2.04-12.65,4.38-25.23,8.44-37.43.32-.96.6-1.96,1.07-2.86.35-.67.89-1.3,1.5-1.76.37-.28,1.03-.25,1.55-.21.19.02.34.14.45.3l.36-.09c-.85-.51-1.18-1.86-.05-2.45.45-.23.88-.5,1.31-.77.03-.05.07-.1.12-.16.95-.95,1.95-1.51,3.31-1.57h.1c3.38-1.13,6.78-2.23,10.15-3.37,4.9-1.66,9.78-3.39,14.69-5.03,1.3-.43,2.36-1.11,3.42-1.97,1.92-1.56,3.44-3.45,4.81-5.46.6-.88,1.33-1.36,2.16-1.57-.02-.66.36-1.34,1.12-1.5.13-.65.71-1.23,1.41-1.18.46.03.9.13,1.34.28.07.02.15.05.22.07-.01-.45-.02-.9-.03-1.35-.02-.85-.37-1.49-.77-2.17-1.21-2.02-2.4-4.06-3.59-6.09-.8-1.39-1.18-2.89-1.2-4.5-.02-1.25-.17-2.5-.27-3.82-2.67-1.03-4.03-3.26-5.27-5.55-1.54-2.88-2.55-5.94-2.44-9.25.05-1.41.3-2.82.61-4.19.34-1.47.79-2.05,2.53-3.97-.25-.94-.56-1.91-.76-2.9-1.14-5.55-.53-11,1.4-16.24,1.43-3.89,3.98-7.13,7.12-9.84.71-.61,1.54-1.09,2.38-1.51,6.15-3.09,12.59-5.25,19.42-6.27,1.88-.28,3.74-.38,5.63-.45,2.07-.07,3.92.53,5.54,1.67,1.54,1.07,2.94,2.35,4.33,3.63.32.29.56.68.77,1.09.06.02.12.05.18.08.32.18.63.48.91.73.3.04.59.17.81.4.03.03.06.06.09.09.24.24.56.52.83.83,1.32-.05,2.51.44,3.6,1.21,2.7,1.87,4.49,4.42,5.36,7.55,1.03,3.72,1.64,7.54,1.78,11.4.08,2.05-.34,4.07-.85,6.05-.15.6-.29,1.21-.45,1.86,3.75,3.2,3.8,7.43,3.18,11.72-.48,3.24-1.94,6.13-3.83,8.8-.83,1.18-1.98,2-3.31,2.55-.07,1.47-.2,2.8-.2,4.13,0,1.46-.32,2.81-1,4.07-1.13,2.07-2.25,4.15-3.45,6.18-.49.84-.81,1.64-.78,2.64.02.84.04,1.69.04,2.53.24-.18.53-.28.84-.28.37,0,.75-.02,1.12.02.65.06,1.07.24,1.49.77.04.06.07.11.1.18,1.03.12,1.93.58,2.62,1.57.36.52.75,1.02,1.17,1.48.88,1,1.77,1.98,2.69,2.94,1.72,1.83,3.91,2.75,6.28,3.47,7.94,2.43,15.84,4.97,23.75,7.47.51.16,1.03.31,1.53.52.26-.12.59-.14.96-.01,1.86.66,3.27,1.86,4.65,3.24.44.44.51.94.36,1.38.32.29.58.66.77,1.07.44.92.84,1.87,1.16,2.84,2.44,7.3,4.67,14.66,6.18,22.22,1.42,7.09,2.81,14.17,4.09,21.29.8,4.4,1.37,8.85,2.06,13.27.69,4.5,1.46,8.99,2.11,13.5.7,4.88,1.33,9.77,1.97,14.66h55.99V0H0v200Z"/></g></svg>