<?xml version="1.0" encoding="UTF-8"?><svg id="_レイヤー_2" xmlns="http://www.w3.org/2000/svg" xmlns:xlink="http://www.w3.org/1999/xlink" viewBox="0 0 332.21 228.42"><defs><style>.cls-1{fill:#fff;}.cls-2,.cls-3,.cls-4,.cls-5{fill:none;}.cls-3{stroke-dasharray:1.99 1.99;}.cls-3,.cls-4{stroke:#999;}.cls-3,.cls-4,.cls-5{stroke-miterlimit:10;}.cls-3,.cls-5{stroke-width:5px;}.cls-4{stroke-width:3px;}.cls-6{fill:#999;}.cls-7{fill:#999;}.cls-8{fill:#b3b3b3;}.cls-9{fill:gray;}.cls-5{stroke:#000;}.cls-10{clip-path:url(#clippath);}</style><clipPath id="clippath"><rect class="cls-2" x="11.78" y="7.98" width="299.27" height="198.9"/></clipPath></defs><g id="_レイヤー_1-2"><rect class="cls-1" x="11.78" y="7.98" width="299.27" height="199.9"/><polygon class="cls-8" points="33.49 28.3 24.12 51.01 33.49 47.39 42.86 51.01 33.49 28.3"/><path class="cls-9" d="M28.54,26.48v-11.08h1.85l5.86,8.27h.03v-8.27h1.85v11.08h-1.85l-5.86-8.27h-.03v8.27h-1.85Z"/><g class="cls-10"><rect class="cls-6" x="136.07" y="114.88" width="60.07" height="31.65"/><path class="cls-7" d="M265.51,141.82c0,2.45-2.25,4.44-5.02,4.44s-5.02-1.99-5.02-4.44,2.25-4.44,5.02-4.44,5.02,1.99,5.02,4.44Z"/><path class="cls-7" d="M197.84,68.88c0,2.45-2.25,4.44-5.02,4.44s-5.02-1.99-5.02-4.44,2.25-4.44,5.02-4.44,5.02,1.99,5.02,4.44Z"/><path class="cls-7" d="M69.57,141.82c0,2.45-2.25,4.44-5.02,4.44s-5.02-1.99-5.02-4.44,2.25-4.44,5.02-4.44,5.02,1.99,5.02,4.44Z"/><path class="cls-7" d="M268.51,49.69c0,2.45-2.25,4.44-5.02,4.44s-5.02-1.99-5.02-4.44,2.25-4.44,5.02-4.44,5.02,1.99,5.02,4.44Z"/><path class="cls-7" d="M90.84,159.69c0,2.45-2.25,4.44-5.02,4.44s-5.02-1.99-5.02-4.44,2.25-4.44,5.02-4.44,5.02,1.99,5.02,4.44Z"/><path d="M91.43,215.16c0,2.45-2.25,4.44-5.02,4.44s-5.02-1.99-5.02-4.44,2.25-4.44,5.02-4.44,5.02,1.99,5.02,4.44Z"/><line class="cls-4" y1="152.29" x2="332.21" y2="152.29"/><line class="cls-4" y1="78.55" x2="332.21" y2="78.55"/><path class="cls-4" d="M332.21,59.5h-152.3c-57.18,0-103.53,41.03-103.53,92.64v67.5"/><line class="cls-4" x1="204.29" x2="204.29" y2="219.64"/><line class="cls-4" x1="272.23" x2="272.23" y2="219.64"/><line class="cls-5" y1="171.16" x2="1.17" y2="171.16"/><line class="cls-3" x1="3.51" y1="171.16" x2="329.86" y2="171.16"/><line class="cls-5" x1="331.03" y1="171.16" x2="332.21" y2="171.16"/><rect class="cls-7" x="152.12" y="165.34" width="40.71" height="11.31"/><line class="cls-4" x1="125.95" y1="152.34" x2="125.95" y2="228.42"/></g></g></svg>