<?xml version="1.0" encoding="UTF-8"?><svg id="_レイヤー_2" xmlns="http://www.w3.org/2000/svg" xmlns:xlink="http://www.w3.org/1999/xlink" viewBox="0 0 960 540"><defs><style>.cls-1{fill:#7f8080;}.cls-2{fill:#e6e6e5;}.cls-3{fill:#b3b3b3;}.cls-4{fill:#999899;}.cls-5{fill:none;stroke:url(#_名称未設定グラデーション_35);stroke-miterlimit:10;}</style><linearGradient id="_名称未設定グラデーション_35" x1="496.63" y1="34.38" x2="496.63" y2="441.37" gradientUnits="userSpaceOnUse"><stop offset=".15" stop-color="#262626"/><stop offset=".33" stop-color="#5d5d5d"/><stop offset=".63" stop-color="#b3b3b3"/><stop offset=".83" stop-color="#e9e9e9"/><stop offset=".93" stop-color="#fff"/></linearGradient></defs><g id="F"><circle class="cls-2" cx="496.62" cy="237.88" r="203"/><path class="cls-4" d="M393.42,372.82c4.27,0,7.76-3.34,7.76-7.43s-3.49-7.42-7.76-7.42h-47.91c-4.26,0-7.75-3.49-7.75-7.76v-3.34c0-4.26,3.49-7.76,7.75-7.76h113.88c4.26,0,7.76,3.49,7.76,7.76v3.34c0,4.27-3.49,7.76-7.76,7.76h-31.61c-4.27,0-7.75,3.34-7.75,7.42s3.49,7.43,7.75,7.43h89.54c4.26,0,7.75,3.49,7.75,7.76v3.33c0,4.27-3.49,7.76-7.75,7.76h-166.4c-4.27,0-7.75-3.49-7.75-7.76v-3.33c0-4.26,3.49-7.76,7.75-7.76h42.5Z"/><path class="cls-4" d="M664.05,129.34c-7.78,0-14.14-4.99-14.14-11.09s6.36-11.08,14.14-11.08h87.33c7.77,0,14.13-5.21,14.13-11.59v-4.99c0-6.37-6.36-11.59-14.13-11.59h-207.57c-7.77,0-14.13,5.22-14.13,11.59v4.99c0,6.37,6.36,11.59,14.13,11.59h57.62c7.77,0,14.14,4.99,14.14,11.08s-6.36,11.09-14.14,11.09h-163.21c-7.76,0-14.12,5.21-14.12,11.58v4.99c0,6.38,6.36,11.58,14.12,11.58h303.29c7.79,0,14.14-5.21,14.14-11.58v-4.99c0-6.37-6.35-11.58-14.14-11.58h-77.46Z"/><rect class="cls-4" x="178.88" y="31.75" width="182.25" height="398.25"/><path d="M168.75,44.12v388.12h201.38V44.12h-201.38ZM360,423.38h-185.62v-109.12h185.62v109.12ZM360,293.38h-185.62v-109.12h185.62v109.12ZM360,163.38h-185.62V54.25h185.62v109.12Z"/><rect class="cls-4" x="626.38" y="31.75" width="182.25" height="398.25" transform="translate(1435 461.75) rotate(180)"/><path d="M820.75,44.12v388.12h-201.38V44.12h201.38ZM629.5,423.38h185.62v-109.12h-185.62v109.12ZM629.5,293.38h185.62v-109.12h-185.62v109.12ZM629.5,163.38h185.62V54.25h-185.62v109.12Z"/><path class="cls-1" d="M0,0v540h960V0H0ZM497.19,427.75c-105.31,0-190.69-85.37-190.69-190.69S391.87,46.38,497.19,46.38s190.69,85.37,190.69,190.69-85.37,190.69-190.69,190.69Z"/><circle class="cls-5" cx="496.62" cy="237.88" r="203"/><rect class="cls-2" x="408.62" y="465.25" width="180" height="6.75"/><rect class="cls-2" x="377" y="484.25" width="250" height="6.75"/><rect class="cls-3" x="340" y="503.25" width="320" height="6.75"/><rect class="cls-4" x="270" y="523.25" width="450" height="6.75"/></g></svg>