<?xml version="1.0" encoding="UTF-8"?><svg id="_レイヤー_2" xmlns="http://www.w3.org/2000/svg" viewBox="0 0 210.5 297.5"><defs><style>.cls-1{fill:none;stroke:#000;stroke-miterlimit:10;stroke-width:.5px;}.cls-2{font-family:Bahnschrift-Bold, Bahnschrift;font-size:22.2px;font-variation-settings:'wght' 700, 'wdth' 100;}.cls-2,.cls-3{font-weight:700;}.cls-4,.cls-3{fill:#fff;}.cls-5{letter-spacing:0em;}.cls-6{font-family:Bahnschrift-SemiBold, Bahnschrift;font-size:10.45px;font-variation-settings:'wght' 600, 'wdth' 100;font-weight:600;}.cls-6,.cls-7{fill:#851b20;}.cls-8{letter-spacing:0em;}.cls-9{letter-spacing:0em;}.cls-3{font-family:YuGothic-Bold, 'Yu Gothic';font-size:60.58px;}.cls-10{letter-spacing:-.02em;}.cls-11{letter-spacing:.02em;}.cls-12{letter-spacing:.02em;}</style></defs><g id="design2"><rect class="cls-1" x=".25" y=".25" width="210" height="297"/><rect class="cls-4" x=".25" y=".25" width="210" height="297"/><rect class="cls-7" x="16.25" y="156.85" width="159" height="77.5"/><text class="cls-3" transform="translate(34.88 218.38)"><tspan x="0" y="0">PDF</tspan></text></g><g id="text"><text class="cls-2" transform="translate(17.75 36.97)"><tspan x="0" y="0">HEA</tspan><tspan class="cls-5" x="42.7" y="0">D</tspan><tspan x="57.05" y="0">LINE</tspan></text><text class="cls-6" transform="translate(18.63 50.02)"><tspan class="cls-8" x="0" y="0">D</tspan><tspan x="6.75" y="0">E</tspan><tspan class="cls-8" x="13" y="0">S</tspan><tspan x="19.33" y="0">I</tspan><tspan class="cls-8" x="22.21" y="0">G</tspan><tspan x="28.86" y="0">N </tspan><tspan class="cls-12" x="38.98" y="0">T</tspan><tspan x="44.22" y="0">EM</tspan><tspan class="cls-8" x="58.6" y="0">P</tspan><tspan class="cls-9" x="65.01" y="0">L</tspan><tspan class="cls-10" x="71.1" y="0">A</tspan><tspan class="cls-11" x="77.66" y="0">T</tspan><tspan x="82.9" y="0">E</tspan></text><path d="M20.41,93.38h.91v6.08h3.58l-.13.78h-4.36v-6.86Z"/><path d="M30.11,97.73c0,1.44-.83,2.63-2.35,2.63-1.43,0-2.3-1.11-2.3-2.61s.85-2.62,2.35-2.62c1.39,0,2.3,1.04,2.3,2.61ZM26.35,97.74c0,1.1.55,1.9,1.45,1.9s1.43-.76,1.43-1.89-.51-1.9-1.45-1.9-1.43.75-1.43,1.9Z"/><path d="M31.24,96.6c0-.7,0-1.09,0-1.36h.85c.01.14.03.53.03,1.02.26-.68.86-1.11,1.68-1.14v.86c-1.03.03-1.68.57-1.68,1.83v2.43h-.86v-3.64Z"/><path d="M35.14,97.89c0,1.02.52,1.74,1.37,1.74.79,0,1.05-.41,1.21-.77h.87c-.2.64-.73,1.49-2.1,1.49-1.57,0-2.21-1.28-2.21-2.56,0-1.49.75-2.67,2.27-2.67,1.61,0,2.14,1.29,2.14,2.36,0,.15,0,.28-.01.41h-3.52ZM37.8,97.29c-.01-.82-.42-1.48-1.28-1.48s-1.27.61-1.35,1.48h2.63Z"/><path d="M39.79,96.53c0-.43,0-.88,0-1.29h.83c.01.15.04.52.03.77.23-.45.66-.89,1.45-.89.71,0,1.19.36,1.38.9.27-.47.74-.9,1.59-.9s1.58.48,1.58,1.83v3.28h-.85v-3.18c0-.58-.21-1.19-.99-1.19s-1.17.62-1.17,1.5v2.87h-.85v-3.15c0-.64-.18-1.22-.97-1.22s-1.19.65-1.19,1.6v2.77h-.86v-3.71Z"/><path d="M50.62,93h.86v1.08h-.86v-1.08ZM50.62,95.24h.86v5h-.86v-5Z"/><path d="M53.81,99.62v2.58h-.86v-5.74c0-.41,0-.83,0-1.22h.84c.02.17.03.47.03.79.27-.5.78-.9,1.63-.9,1.16,0,2,.97,2,2.49,0,1.78-.96,2.75-2.17,2.75-.81,0-1.23-.34-1.46-.74ZM56.56,97.64c0-1.06-.48-1.78-1.34-1.78-1.04,0-1.44.66-1.44,1.87s.34,1.9,1.38,1.9c.91,0,1.4-.75,1.4-1.98Z"/><path d="M59.07,98.81c.14.55.55.87,1.23.87.73,0,1.02-.32,1.02-.77s-.23-.68-1.18-.92c-1.43-.35-1.73-.78-1.73-1.46s.52-1.41,1.8-1.41,1.82.75,1.88,1.44h-.83c-.07-.32-.32-.77-1.08-.77-.7,0-.91.34-.91.66,0,.37.21.56,1.12.78,1.52.36,1.82.87,1.82,1.61,0,.88-.69,1.52-1.94,1.52s-1.93-.65-2.06-1.55h.86Z"/><path d="M67.22,98.78c0,.49,0,1.16.01,1.46h-.84c-.02-.13-.03-.44-.03-.75-.25.55-.73.87-1.51.87-.84,0-1.65-.42-1.65-1.83v-3.29h.86v3.1c0,.66.21,1.26,1.04,1.26.92,0,1.27-.51,1.27-1.76v-2.61h.86v3.54Z"/><path d="M68.7,96.53c0-.43,0-.88,0-1.29h.83c.01.15.04.52.03.77.23-.45.66-.89,1.45-.89.71,0,1.19.36,1.38.9.27-.47.74-.9,1.59-.9s1.58.48,1.58,1.83v3.28h-.85v-3.18c0-.58-.21-1.19-.99-1.19s-1.17.62-1.17,1.5v2.87h-.85v-3.15c0-.64-.18-1.22-.97-1.22s-1.19.65-1.19,1.6v2.77h-.86v-3.71Z"/><path d="M79.95,98.81c.14.55.55.87,1.23.87.73,0,1.02-.32,1.02-.77s-.23-.68-1.18-.92c-1.43-.35-1.73-.78-1.73-1.46s.52-1.41,1.8-1.41,1.82.75,1.88,1.44h-.83c-.07-.32-.32-.77-1.08-.77-.7,0-.91.34-.91.66,0,.37.21.56,1.12.78,1.52.36,1.82.87,1.82,1.61,0,.88-.69,1.52-1.94,1.52s-1.93-.65-2.06-1.55h.86Z"/><path d="M84.19,93h.86v1.08h-.86v-1.08ZM84.19,95.24h.86v5h-.86v-5Z"/><path d="M85.94,95.24h.86v-1.47h.86v1.47h1.1v.7h-1.1v2.93c0,.49.12.73.57.73.12,0,.3,0,.44-.04v.65c-.21.08-.51.09-.75.09-.78,0-1.12-.4-1.12-1.23v-3.13h-.86v-.7Z"/><path d="M95.94,99.15c0,.45.04.95.07,1.09h-.83c-.04-.11-.07-.35-.08-.65-.17.33-.57.77-1.54.77-1.18,0-1.68-.77-1.68-1.53,0-1.12.88-1.63,2.36-1.63h.85v-.43c0-.44-.14-.98-1.08-.98-.83,0-.98.41-1.07.8h-.83c.07-.69.49-1.48,1.93-1.48,1.22,0,1.9.5,1.9,1.64v2.39ZM95.09,97.8h-.81c-1,0-1.53.28-1.53.98,0,.52.36.9.97.9,1.2,0,1.37-.81,1.37-1.72v-.16Z"/><path d="M97.43,96.53c0-.43,0-.88,0-1.29h.83c.01.15.04.52.03.77.23-.45.66-.89,1.45-.89.71,0,1.19.36,1.38.9.27-.47.74-.9,1.59-.9s1.58.48,1.58,1.83v3.28h-.85v-3.18c0-.58-.21-1.19-.99-1.19s-1.17.62-1.17,1.5v2.87h-.85v-3.15c0-.64-.18-1.22-.97-1.22s-1.19.65-1.19,1.6v2.77h-.86v-3.71Z"/><path d="M106.28,97.89c0,1.02.52,1.74,1.37,1.74.79,0,1.05-.41,1.21-.77h.87c-.2.64-.73,1.49-2.1,1.49-1.57,0-2.21-1.28-2.21-2.56,0-1.49.75-2.67,2.27-2.67,1.61,0,2.14,1.29,2.14,2.36,0,.15,0,.28-.01.41h-3.52ZM108.94,97.29c0-.82-.42-1.48-1.28-1.48s-1.27.61-1.35,1.48h2.63Z"/><path d="M110.32,95.24h.86v-1.47h.86v1.47h1.1v.7h-1.1v2.93c0,.49.12.73.57.73.12,0,.3,0,.44-.04v.65c-.21.08-.51.09-.75.09-.78,0-1.12-.4-1.12-1.23v-3.13h-.86v-.7Z"/><path d="M122.2,98.29c-.3,1.16-1.17,2.03-2.73,2.03-2.05,0-3.09-1.56-3.09-3.49s1.04-3.55,3.12-3.55c1.62,0,2.5.92,2.7,2.07h-.91c-.25-.75-.74-1.31-1.82-1.31-1.51,0-2.13,1.38-2.13,2.76s.59,2.76,2.17,2.76c1.06,0,1.52-.61,1.78-1.27h.91Z"/><path d="M127.68,97.73c0,1.44-.83,2.63-2.35,2.63-1.43,0-2.3-1.11-2.3-2.61s.85-2.62,2.35-2.62c1.39,0,2.3,1.04,2.3,2.61ZM123.91,97.74c0,1.1.55,1.9,1.45,1.9s1.43-.76,1.43-1.89-.51-1.9-1.45-1.9-1.43.75-1.43,1.9Z"/><path d="M128.8,96.5c0-.43,0-.87-.01-1.26h.84c.02.15.04.67.03.82.2-.43.61-.94,1.57-.94s1.67.57,1.67,1.9v3.21h-.86v-3.1c0-.75-.29-1.26-1.06-1.26-.94,0-1.32.72-1.32,1.72v2.65h-.86v-3.74Z"/><path d="M134.75,98.81c.14.55.55.87,1.23.87.73,0,1.02-.32,1.02-.77s-.23-.68-1.18-.92c-1.43-.35-1.73-.78-1.73-1.46s.52-1.41,1.8-1.41,1.82.75,1.88,1.44h-.83c-.07-.32-.32-.77-1.08-.77-.7,0-.91.34-.91.66,0,.37.21.56,1.12.78,1.52.36,1.82.87,1.82,1.61,0,.88-.69,1.52-1.94,1.52s-1.93-.65-2.06-1.55h.86Z"/><path d="M139.52,97.89c0,1.02.52,1.74,1.37,1.74.79,0,1.05-.41,1.21-.77h.87c-.2.64-.73,1.49-2.1,1.49-1.57,0-2.21-1.28-2.21-2.56,0-1.49.75-2.67,2.27-2.67,1.61,0,2.14,1.29,2.14,2.36,0,.15,0,.28-.01.41h-3.52ZM142.18,97.29c-.01-.82-.42-1.48-1.28-1.48s-1.27.61-1.35,1.48h2.63Z"/><path d="M148.16,98.71c-.21.86-.79,1.65-2.07,1.65-1.38,0-2.23-.99-2.23-2.59,0-1.41.8-2.64,2.29-2.64s1.94,1.03,2,1.67h-.86c-.12-.51-.44-.95-1.16-.95-.88,0-1.39.76-1.39,1.89s.49,1.9,1.35,1.9c.62,0,.99-.33,1.19-.93h.86Z"/><path d="M148.66,95.24h.86v-1.47h.86v1.47h1.1v.7h-1.1v2.93c0,.49.12.73.57.73.12,0,.3,0,.44-.04v.65c-.21.08-.51.09-.75.09-.78,0-1.12-.4-1.12-1.23v-3.13h-.86v-.7Z"/><path d="M152.89,97.89c0,1.02.52,1.74,1.37,1.74.79,0,1.05-.41,1.21-.77h.87c-.2.64-.73,1.49-2.1,1.49-1.57,0-2.21-1.28-2.21-2.56,0-1.49.75-2.67,2.27-2.67,1.61,0,2.14,1.29,2.14,2.36,0,.15,0,.28-.01.41h-3.52ZM155.55,97.29c0-.82-.42-1.48-1.28-1.48s-1.27.61-1.35,1.48h2.63Z"/><path d="M156.93,95.24h.86v-1.47h.86v1.47h1.1v.7h-1.1v2.93c0,.49.12.73.57.73.12,0,.3,0,.44-.04v.65c-.21.08-.51.09-.75.09-.78,0-1.12-.4-1.12-1.23v-3.13h-.86v-.7Z"/><path d="M164.6,98.78c0,.49,0,1.16.01,1.46h-.84c-.02-.13-.03-.44-.03-.75-.25.55-.73.87-1.51.87-.84,0-1.65-.42-1.65-1.83v-3.29h.86v3.1c0,.66.21,1.26,1.04,1.26.92,0,1.27-.51,1.27-1.76v-2.61h.86v3.54Z"/><path d="M166.08,96.6c0-.7,0-1.09,0-1.36h.85c.01.14.03.53.03,1.02.26-.68.86-1.11,1.68-1.14v.86c-1.03.03-1.68.57-1.68,1.83v2.43h-.86v-3.64Z"/><path d="M23.96,110.97c0,.45.04.95.07,1.09h-.83c-.04-.11-.07-.35-.08-.65-.17.33-.57.77-1.54.77-1.18,0-1.68-.77-1.68-1.53,0-1.12.88-1.63,2.36-1.63h.85v-.43c0-.44-.14-.98-1.08-.98-.83,0-.98.41-1.07.8h-.83c.07-.69.49-1.48,1.93-1.48,1.22,0,1.9.5,1.9,1.64v2.39ZM23.12,109.62h-.81c-1,0-1.53.28-1.53.98,0,.52.36.9.97.9,1.2,0,1.37-.81,1.37-1.72v-.16Z"/><path d="M29.6,104.82v5.82c0,.47,0,.93,0,1.41h-.83c-.02-.13-.04-.52-.04-.71-.25.52-.75.83-1.57.83-1.29,0-2.07-1.04-2.07-2.57s.85-2.67,2.23-2.67c.88,0,1.28.36,1.41.64v-2.76h.86ZM25.99,109.59c0,1.21.57,1.86,1.36,1.86,1.17,0,1.43-.86,1.43-1.96s-.23-1.81-1.36-1.81c-.88,0-1.43.7-1.43,1.91Z"/><path d="M31.07,104.82h.86v1.08h-.86v-1.08ZM31.07,107.06h.86v5h-.86v-5Z"/><path d="M34.26,111.44v2.58h-.86v-5.74c0-.41,0-.83,0-1.22h.84c.02.17.03.47.03.79.27-.5.78-.9,1.63-.9,1.16,0,2,.97,2,2.49,0,1.78-.96,2.75-2.17,2.75-.81,0-1.23-.34-1.46-.74ZM37.01,109.47c0-1.06-.48-1.78-1.34-1.78-1.04,0-1.44.66-1.44,1.87s.34,1.9,1.38,1.9c.91,0,1.4-.75,1.4-1.98Z"/><path d="M39.05,104.82h.86v1.08h-.86v-1.08ZM39.05,107.06h.86v5h-.86v-5Z"/><path d="M45.54,104.82v5.82c0,.47,0,.93,0,1.41h-.83c-.02-.13-.04-.52-.04-.71-.25.52-.75.83-1.57.83-1.29,0-2.07-1.04-2.07-2.57s.85-2.67,2.23-2.67c.88,0,1.28.36,1.41.64v-2.76h.86ZM41.93,109.59c0,1.21.57,1.86,1.36,1.86,1.17,0,1.43-.86,1.43-1.96s-.23-1.81-1.36-1.81c-.88,0-1.43.7-1.43,1.91Z"/><path d="M50.96,110.53c-.21.86-.79,1.65-2.07,1.65-1.38,0-2.23-.99-2.23-2.59,0-1.41.8-2.64,2.29-2.64s1.94,1.03,2,1.67h-.86c-.12-.51-.44-.95-1.16-.95-.88,0-1.39.76-1.39,1.89s.49,1.9,1.35,1.9c.62,0,.99-.33,1.19-.93h.86Z"/><path d="M52.08,104.82h.86v1.08h-.86v-1.08ZM52.08,107.06h.86v5h-.86v-5Z"/><path d="M54.42,108.32c0-.43,0-.87-.01-1.26h.84c.02.15.04.67.03.82.2-.43.61-.94,1.57-.94s1.67.57,1.67,1.9v3.21h-.86v-3.1c0-.75-.29-1.26-1.06-1.26-.94,0-1.32.72-1.32,1.72v2.65h-.86v-3.74Z"/><path d="M64.11,111.61c0,1.6-.66,2.51-2.29,2.51-1.52,0-1.98-.85-2.07-1.53h.88c.15.55.59.84,1.23.84,1.13,0,1.42-.72,1.42-1.87v-.4c-.27.56-.72.88-1.56.88-1.23,0-2.07-1-2.07-2.47,0-1.63.95-2.62,2.16-2.62.95,0,1.36.45,1.47.78.01-.23.03-.56.04-.66h.82c0,.29-.02.96-.02,1.44v3.1ZM60.54,109.53c0,1.05.55,1.77,1.36,1.77,1.08,0,1.39-.72,1.39-1.83s-.3-1.79-1.36-1.79c-.92,0-1.39.77-1.39,1.86Z"/><path d="M66.11,109.72c0,1.02.52,1.74,1.37,1.74.79,0,1.05-.41,1.21-.77h.87c-.2.64-.73,1.49-2.1,1.49-1.57,0-2.21-1.28-2.21-2.56,0-1.49.75-2.67,2.27-2.67,1.61,0,2.14,1.29,2.14,2.36,0,.15,0,.28-.01.41h-3.52ZM68.77,109.11c-.01-.82-.42-1.48-1.28-1.48s-1.27.61-1.35,1.48h2.63Z"/><path d="M70.77,112.06v-7.24h.86v7.24h-.86Z"/><path d="M73.11,104.82h.86v1.08h-.86v-1.08ZM73.11,107.06h.86v5h-.86v-5Z"/><path d="M75.81,110.63c.14.55.55.87,1.23.87.73,0,1.02-.32,1.02-.77s-.23-.68-1.18-.92c-1.43-.35-1.73-.78-1.73-1.46s.52-1.41,1.8-1.41,1.82.75,1.88,1.44h-.83c-.07-.32-.32-.77-1.08-.77-.7,0-.91.34-.91.66,0,.37.21.56,1.12.78,1.52.36,1.82.87,1.82,1.61,0,.88-.69,1.52-1.94,1.52s-1.93-.65-2.06-1.55h.86Z"/><path d="M79.37,107.06h.86v-1.47h.86v1.47h1.1v.7h-1.1v2.93c0,.49.12.73.57.73.12,0,.3,0,.44-.04v.65c-.21.08-.51.09-.75.09-.78,0-1.12-.4-1.12-1.23v-3.13h-.86v-.7Z"/><path d="M83.67,110.63c.14.55.55.87,1.23.87.73,0,1.02-.32,1.02-.77s-.23-.68-1.18-.92c-1.43-.35-1.73-.78-1.73-1.46s.52-1.41,1.8-1.41,1.82.75,1.88,1.44h-.83c-.07-.32-.32-.77-1.08-.77-.7,0-.91.34-.91.66,0,.37.21.56,1.12.78,1.52.36,1.82.87,1.82,1.61,0,.88-.69,1.52-1.94,1.52s-1.93-.65-2.06-1.55h.86Z"/><path d="M88.43,109.72c0,1.02.52,1.74,1.37,1.74.79,0,1.05-.41,1.21-.77h.87c-.2.64-.73,1.49-2.1,1.49-1.57,0-2.21-1.28-2.21-2.56,0-1.49.75-2.67,2.27-2.67,1.61,0,2.14,1.29,2.14,2.36,0,.15,0,.28-.01.41h-3.52ZM91.09,109.11c-.01-.82-.42-1.48-1.28-1.48s-1.27.61-1.35,1.48h2.63Z"/><path d="M97.29,104.82v5.82c0,.47,0,.93,0,1.41h-.83c-.02-.13-.04-.52-.04-.71-.25.52-.75.83-1.57.83-1.29,0-2.07-1.04-2.07-2.57s.85-2.67,2.23-2.67c.88,0,1.28.36,1.41.64v-2.76h.86ZM93.67,109.59c0,1.21.57,1.86,1.36,1.86,1.17,0,1.43-.86,1.43-1.96s-.23-1.81-1.36-1.81c-.88,0-1.43.7-1.43,1.91Z"/><path d="M105.41,104.82v5.82c0,.47,0,.93,0,1.41h-.83c-.02-.13-.04-.52-.04-.71-.25.52-.75.83-1.57.83-1.29,0-2.07-1.04-2.07-2.57s.85-2.67,2.23-2.67c.88,0,1.28.36,1.41.64v-2.76h.86ZM101.79,109.59c0,1.21.57,1.86,1.36,1.86,1.17,0,1.43-.86,1.43-1.96s-.23-1.81-1.36-1.81c-.88,0-1.43.7-1.43,1.91Z"/><path d="M111.17,109.55c0,1.44-.83,2.63-2.35,2.63-1.43,0-2.3-1.11-2.3-2.61s.85-2.62,2.35-2.62c1.39,0,2.3,1.04,2.3,2.61ZM107.41,109.56c0,1.1.55,1.9,1.45,1.9s1.43-.76,1.43-1.89-.51-1.9-1.45-1.9-1.43.75-1.43,1.9Z"/><path d="M115.31,109.72c0,1.02.52,1.74,1.37,1.74.79,0,1.05-.41,1.21-.77h.87c-.2.64-.73,1.49-2.1,1.49-1.57,0-2.21-1.28-2.21-2.56,0-1.49.75-2.67,2.27-2.67,1.61,0,2.14,1.29,2.14,2.36,0,.15,0,.28-.01.41h-3.52ZM117.97,109.11c0-.82-.42-1.48-1.28-1.48s-1.27.61-1.35,1.48h2.63Z"/><path d="M119.98,104.82h.86v1.08h-.86v-1.08ZM119.98,107.06h.86v5h-.86v-5Z"/><path d="M126.33,110.6c0,.49,0,1.16.01,1.46h-.84c-.02-.13-.03-.44-.03-.75-.25.55-.73.87-1.51.87-.84,0-1.65-.42-1.65-1.83v-3.29h.86v3.1c0,.66.21,1.26,1.04,1.26.92,0,1.27-.51,1.27-1.76v-2.61h.86v3.54Z"/><path d="M128.16,110.63c.14.55.55.87,1.23.87.73,0,1.02-.32,1.02-.77s-.23-.68-1.18-.92c-1.43-.35-1.73-.78-1.73-1.46s.52-1.41,1.8-1.41,1.82.75,1.88,1.44h-.83c-.07-.32-.32-.77-1.08-.77-.7,0-.91.34-.91.66,0,.37.21.56,1.12.78,1.52.36,1.82.87,1.82,1.61,0,.88-.69,1.52-1.94,1.52s-1.93-.65-2.06-1.55h.86Z"/><path d="M132.35,108.35c0-.43,0-.88,0-1.29h.83c.01.15.04.52.03.77.23-.45.66-.89,1.45-.89.71,0,1.19.36,1.38.9.27-.47.74-.9,1.59-.9s1.58.48,1.58,1.83v3.28h-.85v-3.18c0-.58-.21-1.19-.99-1.19s-1.17.62-1.17,1.5v2.87h-.85v-3.15c0-.64-.18-1.22-.97-1.22s-1.19.65-1.19,1.6v2.77h-.86v-3.71Z"/><path d="M144.98,109.55c0,1.44-.83,2.63-2.35,2.63-1.43,0-2.3-1.11-2.3-2.61s.85-2.62,2.35-2.62c1.39,0,2.3,1.04,2.3,2.61ZM141.22,109.56c0,1.1.55,1.9,1.45,1.9s1.43-.76,1.43-1.89-.51-1.9-1.45-1.9-1.43.75-1.43,1.9Z"/><path d="M150.32,104.82v5.82c0,.47,0,.93,0,1.41h-.83c-.02-.13-.04-.52-.04-.71-.25.52-.75.83-1.57.83-1.29,0-2.07-1.04-2.07-2.57s.85-2.67,2.23-2.67c.88,0,1.28.36,1.41.64v-2.76h.86ZM146.71,109.59c0,1.21.57,1.86,1.36,1.86,1.17,0,1.43-.86,1.43-1.96s-.23-1.81-1.36-1.81c-.88,0-1.43.7-1.43,1.91Z"/><path d="M153.64,107.06h.86v-1.47h.86v1.47h1.1v.7h-1.1v2.93c0,.49.12.73.57.73.12,0,.3,0,.44-.04v.65c-.21.08-.51.09-.75.09-.78,0-1.12-.4-1.12-1.23v-3.13h-.86v-.7Z"/><path d="M157.87,109.72c0,1.02.52,1.74,1.37,1.74.79,0,1.05-.41,1.21-.77h.87c-.2.64-.73,1.49-2.1,1.49-1.57,0-2.21-1.28-2.21-2.56,0-1.49.75-2.67,2.27-2.67,1.61,0,2.14,1.29,2.14,2.36,0,.15,0,.28-.01.41h-3.52ZM160.54,109.11c-.01-.82-.42-1.48-1.28-1.48s-1.27.61-1.35,1.48h2.63Z"/><path d="M162.52,108.35c0-.43,0-.88,0-1.29h.83c.01.15.04.52.03.77.23-.45.66-.89,1.45-.89.71,0,1.19.36,1.38.9.27-.47.74-.9,1.59-.9s1.58.48,1.58,1.83v3.28h-.85v-3.18c0-.58-.21-1.19-.99-1.19s-1.17.62-1.17,1.5v2.87h-.85v-3.15c0-.64-.18-1.22-.97-1.22s-1.19.65-1.19,1.6v2.77h-.86v-3.71Z"/><path d="M171.72,111.44v2.58h-.86v-5.74c0-.41,0-.83,0-1.22h.84c.02.17.03.47.03.79.27-.5.78-.9,1.63-.9,1.16,0,2,.97,2,2.49,0,1.78-.96,2.75-2.17,2.75-.81,0-1.23-.34-1.46-.74ZM174.46,109.47c0-1.06-.48-1.78-1.34-1.78-1.04,0-1.44.66-1.44,1.87s.34,1.9,1.38,1.9c.91,0,1.4-.75,1.4-1.98Z"/><path d="M180.83,109.55c0,1.44-.83,2.63-2.35,2.63-1.43,0-2.3-1.11-2.3-2.61s.85-2.62,2.35-2.62c1.39,0,2.3,1.04,2.3,2.61ZM177.07,109.56c0,1.1.55,1.9,1.45,1.9s1.43-.76,1.43-1.89-.51-1.9-1.45-1.9-1.43.75-1.43,1.9Z"/><path d="M181.95,108.42c0-.7,0-1.09,0-1.36h.85c.01.14.03.53.03,1.02.26-.68.86-1.11,1.68-1.14v.86c-1.03.03-1.68.57-1.68,1.83v2.43h-.86v-3.64Z"/><path d="M21.56,276.42h.55v3.7h2.18l-.08.47h-2.65v-4.17Z"/><path d="M27.47,279.07c0,.88-.5,1.6-1.43,1.6-.87,0-1.4-.67-1.4-1.59s.52-1.6,1.43-1.6c.84,0,1.4.63,1.4,1.59ZM25.18,279.07c0,.67.33,1.15.88,1.15s.87-.46.87-1.15-.31-1.16-.88-1.16-.87.46-.87,1.15Z"/><path d="M28.16,278.38c0-.42,0-.66,0-.83h.51c0,.08.02.32.02.62.16-.41.52-.68,1.02-.69v.52c-.62.02-1.02.34-1.02,1.11v1.48h-.53v-2.21Z"/><path d="M30.54,279.17c0,.62.31,1.06.83,1.06.48,0,.64-.25.73-.47h.53c-.12.39-.45.91-1.28.91-.96,0-1.35-.78-1.35-1.56,0-.9.46-1.62,1.38-1.62.98,0,1.3.79,1.3,1.44,0,.09,0,.17,0,.25h-2.14ZM32.16,278.8c0-.5-.26-.9-.78-.9s-.77.37-.82.9h1.6Z"/><path d="M33.37,278.34c0-.26,0-.54,0-.78h.51c0,.09.02.32.02.47.14-.27.4-.54.88-.54.43,0,.73.22.84.54.16-.29.45-.54.97-.54s.96.29.96,1.11v2h-.52v-1.93c0-.35-.13-.72-.6-.72s-.71.37-.71.91v1.75h-.51v-1.92c0-.39-.11-.74-.59-.74s-.72.39-.72.97v1.68h-.52v-2.26Z"/><path d="M39.96,276.19h.53v.66h-.53v-.66ZM39.96,277.55h.53v3.04h-.53v-3.04Z"/><path d="M41.91,280.22v1.57h-.52v-3.49c0-.25,0-.51,0-.74h.51c.01.1.02.29.02.48.16-.31.47-.55.99-.55.7,0,1.21.59,1.21,1.51,0,1.09-.59,1.67-1.32,1.67-.49,0-.75-.21-.88-.45ZM43.57,279.02c0-.64-.29-1.08-.81-1.08-.63,0-.88.4-.88,1.14s.2,1.16.84,1.16c.56,0,.85-.46.85-1.21Z"/><path d="M45.11,279.72c.09.33.33.53.75.53.45,0,.62-.19.62-.47s-.14-.42-.72-.56c-.87-.21-1.05-.48-1.05-.89s.32-.85,1.1-.85,1.11.45,1.15.88h-.51c-.04-.2-.19-.47-.66-.47-.43,0-.55.2-.55.4,0,.23.12.34.68.47.92.22,1.11.53,1.11.98,0,.53-.42.92-1.18.92s-1.17-.4-1.25-.94h.52Z"/><path d="M50.07,279.71c0,.29,0,.71,0,.89h-.51c-.01-.08-.02-.26-.02-.46-.15.34-.44.53-.92.53-.51,0-1-.25-1-1.11v-2h.52v1.89c0,.4.13.77.63.77.56,0,.78-.31.78-1.07v-1.59h.52v2.16Z"/><path d="M50.97,278.34c0-.26,0-.54,0-.78h.51c0,.09.02.32.02.47.14-.27.4-.54.88-.54.43,0,.73.22.84.54.16-.29.45-.54.97-.54s.96.29.96,1.11v2h-.52v-1.93c0-.35-.13-.72-.6-.72s-.71.37-.71.91v1.75h-.51v-1.92c0-.39-.11-.74-.59-.74s-.72.39-.72.97v1.68h-.52v-2.26Z"/><path d="M57.82,279.72c.09.33.33.53.75.53.45,0,.62-.19.62-.47s-.14-.42-.72-.56c-.87-.21-1.05-.48-1.05-.89s.32-.85,1.1-.85,1.11.45,1.15.88h-.51c-.04-.2-.19-.47-.66-.47-.43,0-.55.2-.55.4,0,.23.12.34.68.47.92.22,1.11.53,1.11.98,0,.53-.42.92-1.18.92s-1.17-.4-1.25-.94h.52Z"/><path d="M60.4,276.19h.52v.66h-.52v-.66ZM60.4,277.55h.52v3.04h-.52v-3.04Z"/><path d="M61.46,277.55h.53v-.9h.53v.9h.67v.43h-.67v1.78c0,.29.07.45.35.45.07,0,.18,0,.26-.03v.39c-.13.05-.31.06-.45.06-.47,0-.68-.25-.68-.75v-1.9h-.53v-.43Z"/><path d="M67.55,279.93c0,.28.02.58.04.66h-.5c-.02-.07-.04-.21-.05-.4-.11.2-.35.47-.94.47-.72,0-1.02-.47-1.02-.93,0-.68.53-.99,1.44-.99h.52v-.26c0-.27-.08-.6-.65-.6-.51,0-.59.25-.65.49h-.51c.04-.42.3-.9,1.17-.9.74,0,1.15.3,1.15,1v1.45ZM67.04,279.11h-.49c-.61,0-.93.17-.93.6,0,.32.22.55.59.55.73,0,.83-.49.83-1.05v-.1Z"/><path d="M68.46,278.34c0-.26,0-.54,0-.78h.51c0,.09.02.32.02.47.14-.27.4-.54.88-.54.43,0,.73.22.84.54.16-.29.45-.54.97-.54s.96.29.96,1.11v2h-.52v-1.93c0-.35-.13-.72-.6-.72s-.71.37-.71.91v1.75h-.51v-1.92c0-.39-.11-.74-.59-.74s-.72.39-.72.97v1.68h-.52v-2.26Z"/><path d="M73.85,279.17c0,.62.31,1.06.83,1.06.48,0,.64-.25.73-.47h.53c-.12.39-.45.91-1.28.91-.96,0-1.35-.78-1.35-1.56,0-.9.46-1.62,1.38-1.62.98,0,1.3.79,1.3,1.44,0,.09,0,.17,0,.25h-2.14ZM75.47,278.8c0-.5-.26-.9-.78-.9s-.77.37-.82.9h1.6Z"/><path d="M76.31,277.55h.53v-.9h.53v.9h.67v.43h-.67v1.78c0,.29.07.45.35.45.07,0,.18,0,.26-.03v.39c-.13.05-.31.06-.45.06-.47,0-.68-.25-.68-.75v-1.9h-.53v-.43Z"/><path d="M83.54,279.41c-.19.71-.71,1.23-1.66,1.23-1.25,0-1.88-.95-1.88-2.12s.63-2.16,1.9-2.16c.98,0,1.52.56,1.64,1.26h-.55c-.15-.46-.45-.8-1.11-.8-.92,0-1.3.84-1.3,1.68s.36,1.68,1.32,1.68c.64,0,.93-.37,1.08-.77h.56Z"/><path d="M86.88,279.07c0,.88-.5,1.6-1.43,1.6-.87,0-1.4-.67-1.4-1.59s.52-1.6,1.43-1.6c.84,0,1.4.63,1.4,1.59ZM84.59,279.07c0,.67.33,1.15.88,1.15s.87-.46.87-1.15-.31-1.16-.88-1.16-.87.46-.87,1.15Z"/><path d="M87.57,278.32c0-.26,0-.53,0-.77h.51c.01.09.02.41.02.5.12-.26.37-.57.96-.57s1.02.35,1.02,1.16v1.96h-.53v-1.89c0-.46-.18-.77-.64-.77-.57,0-.8.44-.8,1.05v1.61h-.53v-2.27Z"/><path d="M91.18,279.72c.09.33.33.53.75.53.45,0,.62-.19.62-.47s-.14-.42-.72-.56c-.87-.21-1.05-.48-1.05-.89s.32-.85,1.1-.85,1.11.45,1.15.88h-.51c-.04-.2-.19-.47-.66-.47-.43,0-.55.2-.55.4,0,.23.12.34.68.47.92.22,1.11.53,1.11.98,0,.53-.42.92-1.18.92s-1.17-.4-1.25-.94h.52Z"/><path d="M94.09,279.17c0,.62.31,1.06.83,1.06.48,0,.64-.25.73-.47h.53c-.12.39-.45.91-1.28.91-.96,0-1.35-.78-1.35-1.56,0-.9.46-1.62,1.38-1.62.98,0,1.3.79,1.3,1.44,0,.09,0,.17,0,.25h-2.14ZM95.71,278.8c0-.5-.26-.9-.78-.9s-.77.37-.82.9h1.6Z"/><path d="M99.35,279.66c-.13.52-.48,1-1.26,1-.84,0-1.36-.6-1.36-1.58,0-.86.49-1.61,1.39-1.61s1.18.62,1.22,1.02h-.52c-.08-.31-.27-.58-.71-.58-.54,0-.84.46-.84,1.15s.3,1.16.82,1.16c.38,0,.6-.2.73-.57h.52Z"/><path d="M99.65,277.55h.53v-.9h.53v.9h.67v.43h-.67v1.78c0,.29.07.45.35.45.07,0,.18,0,.26-.03v.39c-.13.05-.31.06-.45.06-.47,0-.68-.25-.68-.75v-1.9h-.53v-.43Z"/><path d="M102.23,279.17c0,.62.32,1.06.83,1.06.48,0,.64-.25.73-.47h.53c-.12.39-.45.91-1.28.91-.96,0-1.35-.78-1.35-1.56,0-.9.46-1.62,1.38-1.62.98,0,1.3.79,1.3,1.44,0,.09,0,.17,0,.25h-2.14ZM103.85,278.8c0-.5-.26-.9-.78-.9s-.77.37-.82.9h1.6Z"/><path d="M104.69,277.55h.53v-.9h.52v.9h.67v.43h-.67v1.78c0,.29.07.45.35.45.07,0,.18,0,.26-.03v.39c-.13.05-.31.06-.46.06-.47,0-.68-.25-.68-.75v-1.9h-.53v-.43Z"/><path d="M109.36,279.71c0,.29,0,.71,0,.89h-.51c-.01-.08-.02-.26-.02-.46-.15.34-.44.53-.92.53-.51,0-1-.25-1-1.11v-2h.52v1.89c0,.4.13.77.63.77.56,0,.78-.31.78-1.07v-1.59h.52v2.16Z"/><path d="M110.26,278.38c0-.42,0-.66,0-.83h.51c0,.08.02.32.02.62.16-.41.52-.68,1.02-.69v.52c-.62.02-1.02.34-1.02,1.11v1.48h-.53v-2.21Z"/><path d="M23.73,287.13c0,.28.02.58.04.66h-.5c-.02-.07-.04-.21-.05-.4-.11.2-.35.47-.94.47-.72,0-1.02-.47-1.02-.93,0-.68.53-.99,1.44-.99h.52v-.26c0-.27-.08-.6-.65-.6-.51,0-.59.25-.65.49h-.51c.04-.42.3-.9,1.17-.9.74,0,1.15.3,1.15,1v1.45ZM23.21,286.31h-.49c-.61,0-.93.17-.93.6,0,.32.22.55.59.55.73,0,.83-.49.83-1.04v-.1Z"/><path d="M27.16,283.39v3.54c0,.29,0,.57,0,.86h-.5c-.01-.08-.02-.31-.03-.43-.15.32-.46.5-.96.5-.78,0-1.26-.63-1.26-1.56s.52-1.62,1.36-1.62c.54,0,.78.22.86.39v-1.68h.53ZM24.96,286.29c0,.73.35,1.13.83,1.13.71,0,.87-.53.87-1.19s-.14-1.1-.83-1.1c-.54,0-.87.43-.87,1.16Z"/><path d="M28.06,283.39h.52v.66h-.52v-.66ZM28.06,284.75h.52v3.04h-.52v-3.04Z"/><path d="M30,287.42v1.57h-.52v-3.49c0-.25,0-.51,0-.74h.51c.01.1.02.29.02.48.16-.31.47-.55.99-.55.7,0,1.21.59,1.21,1.52,0,1.08-.59,1.67-1.32,1.67-.49,0-.75-.21-.88-.45ZM31.67,286.22c0-.64-.29-1.09-.81-1.09-.63,0-.88.4-.88,1.14s.2,1.15.84,1.15c.56,0,.85-.46.85-1.21Z"/><path d="M32.92,283.39h.52v.66h-.52v-.66ZM32.92,284.75h.52v3.04h-.52v-3.04Z"/><path d="M36.87,283.39v3.54c0,.29,0,.57,0,.86h-.5c-.01-.08-.02-.31-.03-.43-.15.32-.46.5-.96.5-.78,0-1.26-.63-1.26-1.56s.52-1.62,1.36-1.62c.54,0,.78.22.86.39v-1.68h.53ZM34.67,286.29c0,.73.35,1.13.83,1.13.71,0,.87-.53.87-1.19s-.14-1.1-.83-1.1c-.54,0-.87.43-.87,1.16Z"/><path d="M40.16,286.86c-.13.52-.48,1-1.26,1-.84,0-1.36-.6-1.36-1.58,0-.86.49-1.61,1.39-1.61s1.18.62,1.22,1.02h-.52c-.08-.31-.27-.58-.71-.58-.54,0-.84.46-.84,1.15s.3,1.16.82,1.16c.38,0,.6-.2.73-.56h.52Z"/><path d="M40.85,283.39h.52v.66h-.52v-.66ZM40.85,284.75h.52v3.04h-.52v-3.04Z"/><path d="M42.27,285.52c0-.26,0-.53,0-.77h.51c.01.09.02.41.02.5.12-.26.37-.57.96-.57s1.02.35,1.02,1.16v1.96h-.53v-1.89c0-.46-.18-.77-.64-.77-.57,0-.8.44-.8,1.05v1.61h-.53v-2.27Z"/><path d="M48.17,287.52c0,.97-.4,1.53-1.4,1.53-.92,0-1.21-.52-1.26-.93h.54c.09.33.36.51.75.51.69,0,.86-.44.86-1.14v-.25c-.16.34-.44.53-.95.53-.75,0-1.26-.61-1.26-1.5,0-.99.58-1.6,1.31-1.6.58,0,.83.27.9.47,0-.14.02-.34.02-.4h.5c0,.18,0,.59,0,.88v1.89ZM46,286.25c0,.64.33,1.08.83,1.08.66,0,.85-.44.85-1.12s-.18-1.09-.83-1.09c-.56,0-.85.47-.85,1.13Z"/><path d="M49.39,286.37c0,.62.32,1.06.83,1.06.48,0,.64-.25.73-.47h.53c-.12.39-.45.91-1.28.91-.96,0-1.35-.78-1.35-1.56,0-.9.46-1.62,1.38-1.62.98,0,1.3.79,1.3,1.44,0,.09,0,.17,0,.25h-2.14ZM51.01,286c0-.5-.26-.9-.78-.9s-.77.37-.82.9h1.6Z"/><path d="M52.23,287.79v-4.4h.52v4.4h-.52Z"/><path d="M53.65,283.39h.52v.66h-.52v-.66ZM53.65,284.75h.52v3.04h-.52v-3.04Z"/><path d="M55.3,286.92c.09.33.33.53.75.53.45,0,.62-.19.62-.47s-.14-.42-.72-.56c-.87-.21-1.05-.48-1.05-.89s.32-.86,1.1-.86,1.11.46,1.14.88h-.51c-.04-.2-.19-.47-.66-.47-.43,0-.55.21-.55.4,0,.23.12.34.68.47.92.22,1.11.53,1.11.98,0,.53-.42.92-1.18.92s-1.17-.4-1.25-.94h.52Z"/><path d="M57.47,284.75h.53v-.9h.52v.9h.67v.43h-.67v1.78c0,.3.07.45.35.45.07,0,.18,0,.26-.03v.4c-.13.05-.31.06-.46.06-.47,0-.68-.25-.68-.75v-1.9h-.53v-.43Z"/><path d="M60.08,286.92c.09.33.33.53.75.53.45,0,.62-.19.62-.47s-.14-.42-.72-.56c-.87-.21-1.05-.48-1.05-.89s.32-.86,1.1-.86,1.11.46,1.15.88h-.51c-.04-.2-.19-.47-.66-.47-.43,0-.55.21-.55.4,0,.23.12.34.68.47.92.22,1.11.53,1.11.98,0,.53-.42.92-1.18.92s-1.17-.4-1.25-.94h.52Z"/><path d="M62.98,286.37c0,.62.32,1.06.83,1.06.48,0,.64-.25.73-.47h.53c-.12.39-.45.91-1.28.91-.96,0-1.35-.78-1.35-1.56,0-.9.46-1.62,1.38-1.62.98,0,1.3.79,1.3,1.44,0,.09,0,.17,0,.25h-2.14ZM64.6,286c0-.5-.26-.9-.78-.9s-.77.37-.82.9h1.6Z"/><path d="M68.37,283.39v3.54c0,.29,0,.57,0,.86h-.5c-.01-.08-.02-.31-.03-.43-.15.32-.46.5-.96.5-.78,0-1.26-.63-1.26-1.56s.52-1.62,1.36-1.62c.54,0,.78.22.86.39v-1.68h.52ZM66.17,286.29c0,.73.35,1.13.83,1.13.71,0,.87-.53.87-1.19s-.14-1.1-.83-1.1c-.54,0-.87.43-.87,1.16Z"/><path d="M73.32,283.39v3.54c0,.29,0,.57,0,.86h-.5c-.01-.08-.02-.31-.03-.43-.15.32-.46.5-.96.5-.78,0-1.26-.63-1.26-1.56s.52-1.62,1.36-1.62c.54,0,.78.22.86.39v-1.68h.53ZM71.12,286.29c0,.73.35,1.13.83,1.13.71,0,.87-.53.87-1.19s-.14-1.1-.83-1.1c-.54,0-.87.43-.87,1.16Z"/><path d="M76.83,286.27c0,.88-.5,1.6-1.43,1.6-.87,0-1.4-.67-1.4-1.59s.52-1.6,1.43-1.6c.84,0,1.4.63,1.4,1.59ZM74.54,286.27c0,.67.33,1.15.88,1.15s.87-.46.87-1.15-.31-1.16-.88-1.16-.87.46-.87,1.15Z"/><path d="M79.35,286.37c0,.62.31,1.06.83,1.06.48,0,.64-.25.73-.47h.53c-.12.39-.45.91-1.28.91-.96,0-1.35-.78-1.35-1.56,0-.9.46-1.62,1.38-1.62.98,0,1.3.79,1.3,1.44,0,.09,0,.17,0,.25h-2.14ZM80.96,286c0-.5-.26-.9-.78-.9s-.77.37-.82.9h1.6Z"/><path d="M82.19,283.39h.53v.66h-.53v-.66ZM82.19,284.75h.53v3.04h-.53v-3.04Z"/><path d="M86.06,286.91c0,.3,0,.71,0,.89h-.51c-.01-.08-.02-.27-.02-.46-.15.34-.44.53-.92.53-.51,0-1-.26-1-1.11v-2h.52v1.89c0,.4.13.77.63.77.56,0,.78-.31.78-1.07v-1.59h.52v2.15Z"/><path d="M87.17,286.92c.09.33.33.53.75.53.45,0,.62-.19.62-.47s-.14-.42-.72-.56c-.87-.21-1.05-.48-1.05-.89s.32-.86,1.1-.86,1.11.46,1.15.88h-.51c-.04-.2-.19-.47-.66-.47-.43,0-.55.21-.55.4,0,.23.12.34.68.47.92.22,1.11.53,1.11.98,0,.53-.42.92-1.18.92s-1.17-.4-1.25-.94h.52Z"/><path d="M89.72,285.54c0-.26,0-.54,0-.78h.51c0,.09.02.32.02.47.14-.27.4-.54.88-.54.43,0,.73.22.84.54.16-.29.45-.54.97-.54s.96.29.96,1.12v2h-.52v-1.93c0-.35-.13-.73-.6-.73s-.71.38-.71.91v1.75h-.51v-1.92c0-.39-.11-.74-.59-.74s-.72.4-.72.97v1.68h-.52v-2.26Z"/><path d="M97.41,286.27c0,.88-.5,1.6-1.43,1.6-.87,0-1.4-.67-1.4-1.59s.52-1.6,1.43-1.6c.84,0,1.4.63,1.4,1.59ZM95.12,286.27c0,.67.33,1.15.88,1.15s.87-.46.87-1.15-.31-1.16-.88-1.16-.87.46-.87,1.15Z"/><path d="M100.67,283.39v3.54c0,.29,0,.57,0,.86h-.5c-.01-.08-.02-.31-.03-.43-.15.32-.46.5-.96.5-.78,0-1.26-.63-1.26-1.56s.52-1.62,1.36-1.62c.54,0,.78.22.86.39v-1.68h.53ZM98.47,286.29c0,.73.35,1.13.83,1.13.71,0,.87-.53.87-1.19s-.14-1.1-.83-1.1c-.54,0-.87.43-.87,1.16Z"/><path d="M102.69,284.75h.53v-.9h.53v.9h.67v.43h-.67v1.78c0,.3.07.45.35.45.07,0,.18,0,.26-.03v.4c-.13.05-.31.06-.45.06-.47,0-.68-.25-.68-.75v-1.9h-.53v-.43Z"/><path d="M105.27,286.37c0,.62.32,1.06.83,1.06.48,0,.64-.25.73-.47h.53c-.12.39-.45.91-1.28.91-.96,0-1.35-.78-1.35-1.56,0-.9.46-1.62,1.38-1.62.98,0,1.3.79,1.3,1.44,0,.09,0,.17,0,.25h-2.14ZM106.88,286c0-.5-.26-.9-.78-.9s-.77.37-.82.9h1.6Z"/><path d="M108.1,285.54c0-.26,0-.54,0-.78h.51c0,.09.02.32.02.47.14-.27.4-.54.88-.54.43,0,.73.22.84.54.16-.29.45-.54.97-.54s.96.29.96,1.12v2h-.52v-1.93c0-.35-.13-.73-.6-.73s-.71.38-.71.91v1.75h-.51v-1.92c0-.39-.11-.74-.59-.74s-.72.4-.72.97v1.68h-.52v-2.26Z"/><path d="M113.69,287.42v1.57h-.52v-3.49c0-.25,0-.51,0-.74h.51c.01.1.02.29.02.48.17-.31.47-.55.99-.55.7,0,1.21.59,1.21,1.52,0,1.08-.59,1.67-1.32,1.67-.49,0-.75-.21-.89-.45ZM115.36,286.22c0-.64-.29-1.09-.81-1.09-.63,0-.88.4-.88,1.14s.2,1.15.84,1.15c.56,0,.85-.46.85-1.21Z"/><path d="M119.24,286.27c0,.88-.5,1.6-1.43,1.6-.87,0-1.4-.67-1.4-1.59s.52-1.6,1.43-1.6c.84,0,1.4.63,1.4,1.59ZM116.95,286.27c0,.67.33,1.15.88,1.15s.87-.46.87-1.15-.31-1.16-.88-1.16-.87.46-.87,1.15Z"/><path d="M119.93,285.58c0-.42,0-.66,0-.83h.51c0,.09.02.32.02.62.16-.41.52-.68,1.02-.69v.52c-.62.02-1.02.34-1.02,1.11v1.48h-.52v-2.21Z"/></g></svg>