<?xml version="1.0" encoding="UTF-8"?><svg id="_レイヤー_2" xmlns="http://www.w3.org/2000/svg" viewBox="0 0 300 200"><defs><style>.cls-1{stroke:#999;stroke-miterlimit:10;}.cls-1,.cls-2{fill:none;stroke-width:5.67px;}.cls-2{stroke:#e6e6e6;stroke-linecap:round;stroke-linejoin:round;}.cls-3{fill:#666;font-family:YuGothic-Bold, 'Yu Gothic';font-size:14.35px;font-weight:700;}.cls-4{fill:#999;}.cls-5{letter-spacing:0em;}.cls-6{fill:#e6e6e6;}</style></defs><g id="_レイヤー_1-2"><rect class="cls-6" width="300" height="200"/><path class="cls-4" d="M150.5,70.89c13.17,0,23.88,10.71,23.88,23.88s-10.71,23.88-23.88,23.88-23.88-10.71-23.88-23.88,10.71-23.88,23.88-23.88M150.5,65.23c-16.32,0-29.55,13.23-29.55,29.55s13.23,29.55,29.55,29.55,29.55-13.23,29.55-29.55-13.23-29.55-29.55-29.55h0Z"/><circle class="cls-4" cx="150.5" cy="94.77" r="20.15"/><path class="cls-2" d="M150.3,107.06c-6.68,0-12.09-5.41-12.09-12.09"/><path class="cls-1" d="M171.98,64.53l-2.67-9.36c-.82-2.04-2.79-3.38-4.99-3.38h-27.64c-2.2,0-4.17,1.34-4.99,3.38l-2.67,9.36c-.82,2.04-2.79,3.38-4.99,3.38h-21.88c-2.97,0-5.37,2.41-5.37,5.37v51.03c0,2.97,2.41,5.37,5.37,5.37h96.7c2.97,0,5.37-2.41,5.37-5.37v-51.03c0-2.97-2.41-5.37-5.37-5.37h-21.88c-2.2,0-4.17-1.34-4.99-3.38Z"/><rect class="cls-4" x="103.49" y="57.17" width="18.8" height="5.37" rx="1.42" ry="1.42"/><text class="cls-3" transform="translate(95.75 151.07)"><tspan x="0" y="0">PH</tspan><tspan class="cls-5" x="21.09" y="0">OT</tspan><tspan x="41.24" y="0">OGRAPHY</tspan></text></g></svg>